<svg xmlns="http://www.w3.org/2000/svg" viewBox="0 0 112.55 112.78"><defs><style>.cls-1{fill:#333;}</style></defs><g id="Ebene_2" data-name="Ebene 2"><g id="Ebene_1-2" data-name="Ebene 1"><path class="cls-1" d="M112.55,56.1A56.28,56.28,0,1,1,55.67,0,56.32,56.32,0,0,1,112.55,56.1Zm-6.08.58A50.21,50.21,0,1,0,6.06,56c-.14,27.77,22,50.61,49.87,50.63A50,50,0,0,0,106.47,56.68Z"/><path class="cls-1" d="M22.43,82.48V75.37c1-.12,1.94-.24,2.9-.33s2-.13,3.12-.21V57l-2.17-1.23a12,12,0,0,1-.2-2,14.88,14.88,0,0,1,.41-2.2H41.27c.11,1.39.22,2.77.35,4.27L39.12,57V74.8H50.69c.91-2.93.32-6,.43-9s0-5.79,0-8.78L48.71,56V51.66h15c.14,1.47.26,2.72.38,4.09L61.59,57V74.77H73V57l-2.25-1V51.66H85.81c.09,1.34.19,2.72.29,4.21L83.66,57V74.84l5.89.33c1.16,2.36.52,4.75.58,7.31Z"/><path class="cls-1" d="M19.84,45.68V40.89l36.24-18.2L92.66,41v4.33C89.66,46.19,28.46,46.49,19.84,45.68Z"/></g></g></svg>