<svg xmlns="http://www.w3.org/2000/svg" viewBox="0 0 99.04 99.04"><defs><style>.cls-1{fill:#9d9e9e;}</style></defs><g id="Ebene_2" data-name="Ebene 2"><g id="_16" data-name="16"><path class="cls-1" d="M49.52,0a49.52,49.52,0,1,1-35,14.5A49.34,49.34,0,0,1,49.52,0ZM81.79,17.25A45.64,45.64,0,1,0,17.25,81.79,45.64,45.64,0,1,0,81.79,17.25Z"/><path class="cls-1" d="M21.83,69.93v-5.8c.79-.09,1.57-.19,2.36-.26s1.59-.11,2.54-.18V49.17l-1.77-1a9.88,9.88,0,0,1-.16-1.62,11.35,11.35,0,0,1,.34-1.79h12c.09,1.13.18,2.25.28,3.48l-2,.88V63.67h9.42c.75-2.39.27-4.87.35-7.3s0-4.72,0-7.16l-2-.9v-3.5H55.49l.31,3.34-2.06,1V63.64H63V49.16l-1.83-.82V44.81H73.47l.24,3.43c-.7.31-1.31.59-2,.88V63.7l4.8.27c.94,1.92.42,3.87.47,6Z"/><path class="cls-1" d="M19.72,39.94V36L49.25,21.2l29.8,15v3.53C76.61,40.36,26.74,40.6,19.72,39.94Z"/></g></g></svg>