<svg xmlns="http://www.w3.org/2000/svg" viewBox="0 0 112.56 112.8"><defs><style>.cls-1{fill:#545454;}</style></defs><g id="Ebene_2" data-name="Ebene 2"><g id="Ebene_1-2" data-name="Ebene 1"><path class="cls-1" d="M112.55,57C112.21,88.46,87,113.08,55.37,112.8,24.42,112.53-.34,87,0,55.66A56.28,56.28,0,1,1,112.55,57Zm-6.06-.39C106.54,28.86,84,6.1,56.43,6.09A50.33,50.33,0,1,0,106.49,56.6Z"/><path class="cls-1" d="M79.06,31.05l10.27-3.86-1.07-2.38-13,4.76-2.5,8.26H45.14v6.36h3.68l5,39H79.08l5-38.95h3.68V37.83H77.53Z"/><path class="cls-1" d="M47.24,63.83H21l-3,3v.08l3,3H48Z"/><path class="cls-1" d="M45.52,50.42H31.31a9.25,9.25,0,0,0-9.26,9.26v1.1h24.8Z"/><path class="cls-1" d="M22.05,73v1.1a9.26,9.26,0,0,0,9.26,9.26H47.09A9,9,0,0,0,49.7,83L48.42,73Z"/></g></g></svg>