<svg xmlns="http://www.w3.org/2000/svg" viewBox="0 0 99.04 99.06"><defs><style>.cls-1{fill:#262626;}</style></defs><g id="Ebene_2" data-name="Ebene 2"><g id="_16" data-name="16"><path class="cls-1" d="M49.52,0a49.52,49.52,0,1,1-35,14.5A49.47,49.47,0,0,1,49.52,0ZM81.79,17.25a45.64,45.64,0,1,0,13.38,32.3,45.45,45.45,0,0,0-13.38-32.3Z"/><path class="cls-1" d="M67.66,73.76h-3.2V68c0-5.73-3.14-11-8.85-14.83a3.76,3.76,0,0,1,0-5.45c5.71-3.84,8.85-9.11,8.85-14.84V27.21h3.2a1.81,1.81,0,1,0,0-3.62H30.53a1.81,1.81,0,0,0,0,3.62h3.21v5.71c0,5.73,3.14,11,8.85,14.84a3.76,3.76,0,0,1,0,5.45C36.88,57,33.74,62.31,33.74,68v5.72H30.53a1.81,1.81,0,0,0,0,3.62H67.66a1.81,1.81,0,1,0,0-3.62ZM37.35,68c0-6.05,4.55-10,7.25-11.83a7.3,7.3,0,0,0,0-11.46c-2.7-1.82-7.25-5.77-7.25-11.83V27.21H60.84v5.71c0,6.06-4.54,10-7.25,11.83a6.78,6.78,0,0,0-2.77,5.73,6.77,6.77,0,0,0,2.77,5.73C56.3,58,60.84,62,60.84,68v5.72h-.6c-1.49-5.6-7.31-14.33-8.26-15.07-.65-.51-5.11-.51-5.77,0-1,.74-6.77,9.47-8.26,15.07h-.6V68Z"/></g></g></svg>