<svg xmlns="http://www.w3.org/2000/svg" viewBox="0 0 99.04 99.06"><defs><style>.cls-1{fill:#262626;}.cls-2{fill:#fff;}</style></defs><g id="Ebene_2" data-name="Ebene 2"><g id="_16" data-name="16"><path class="cls-1" d="M49.52,0a49.52,49.52,0,1,1-35,14.5A49.47,49.47,0,0,1,49.52,0ZM81.79,17.25a45.64,45.64,0,1,0,13.38,32.3,45.45,45.45,0,0,0-13.38-32.3Z"/><path class="cls-1" d="M18.41,66.86H81.33a1.28,1.28,0,0,0,1.28-1.28V44.74a1.28,1.28,0,0,0-1.28-1.28H61.38V31.56a1.28,1.28,0,0,0-1.28-1.28H39.64a1.28,1.28,0,0,0-1.28,1.28v6.78H18.41a1.28,1.28,0,0,0-1.28,1.28v26A1.28,1.28,0,0,0,18.41,66.86Z"/><path class="cls-2" d="M47.31,46a1.28,1.28,0,0,0,0,2.56h5.12a1.28,1.28,0,0,0,0-2.56H51.15V37.06a1.28,1.28,0,0,0-1.28-1.28H47.31a1.28,1.28,0,0,0,0,2.56h1.28V46Z"/><path class="cls-2" d="M31.58,53.69a1.28,1.28,0,0,0,1.28-1.28V47.29A1.28,1.28,0,0,0,31.58,46H26.47a1.28,1.28,0,1,0,0,2.56H30.3v2.56H26.47a1.28,1.28,0,0,0-1.28,1.28v5.11a1.28,1.28,0,0,0,1.28,1.28h5.11a1.28,1.28,0,1,0,0-2.55H27.75V53.69Z"/><path class="cls-2" d="M68.16,53.69a1.28,1.28,0,0,0,0,2.56H72V58.8H68.16a1.28,1.28,0,0,0,0,2.56h5.11a1.28,1.28,0,0,0,1.28-1.28V49.85a1.28,1.28,0,0,0-1.28-1.28H68.16a1.28,1.28,0,0,0,0,2.56H72v2.56Z"/></g></g></svg>