<svg xmlns="http://www.w3.org/2000/svg" viewBox="0 0 112.56 112.8"><defs><style>.cls-1{fill:#545454;}</style></defs><g id="Ebene_2" data-name="Ebene 2"><g id="Ebene_1-2" data-name="Ebene 1"><path class="cls-1" d="M112.55,57C112.21,88.46,87,113.08,55.37,112.8,24.42,112.53-.34,87,0,55.66A56.28,56.28,0,1,1,112.55,57Zm-6.06-.39C106.54,28.86,84,6.1,56.43,6.09A50.33,50.33,0,1,0,106.49,56.6Z"/><path class="cls-1" d="M68.7,31.71a28.14,28.14,0,0,1,14,16.11,12.13,12.13,0,0,1,4.79,2A32.23,32.23,0,0,0,69.62,27.64,13.42,13.42,0,0,1,68.7,31.71Z"/><path class="cls-1" d="M61.26,84.32a27.86,27.86,0,0,1-5.12.49,28.28,28.28,0,0,1-5.86-.62,12.08,12.08,0,0,1-4.14,3.07,31.81,31.81,0,0,0,19.29.24A12.3,12.3,0,0,1,61.26,84.32Z"/><path class="cls-1" d="M29.4,48.28a28.16,28.16,0,0,1,14-16.47,13.69,13.69,0,0,1-.95-4A32.21,32.21,0,0,0,24.71,50.14,12,12,0,0,1,29.4,48.28Z"/><path class="cls-1" d="M41.74,41.9v4.77a1.2,1.2,0,0,0,1.2,1.2H69.18a1.2,1.2,0,0,0,1.2-1.2V41.9a10.77,10.77,0,0,0-8.71-10.54,8.35,8.35,0,1,0-11.22,0A10.77,10.77,0,0,0,41.74,41.9Z"/><path class="cls-1" d="M21.46,82H47.71a1.19,1.19,0,0,0,1.19-1.19V76.07a10.75,10.75,0,0,0-8.7-10.54,8.36,8.36,0,1,0-11.23,0,10.75,10.75,0,0,0-8.7,10.54v4.77A1.19,1.19,0,0,0,21.46,82Z"/><path class="cls-1" d="M83.15,65.53a8.36,8.36,0,1,0-11.23,0,10.75,10.75,0,0,0-8.7,10.54v4.77A1.19,1.19,0,0,0,64.41,82H90.66a1.19,1.19,0,0,0,1.19-1.19V76.07A10.75,10.75,0,0,0,83.15,65.53Z"/></g></g></svg>