<svg xmlns="http://www.w3.org/2000/svg" xmlns:xlink="http://www.w3.org/1999/xlink" viewBox="0 0 112.56 112.79"><defs><style>.cls-1{fill:none;}.cls-2{clip-path:url(#clip-path);}.cls-3{fill:#545454;}.cls-4{fill:#fff;}</style><clipPath id="clip-path"><rect class="cls-1" x="21.01" y="27.91" width="67.9" height="65.24" transform="translate(-16.56 20.92) rotate(-18.78)"/></clipPath></defs><g id="Ebene_2" data-name="Ebene 2"><g id="Ebene_1-2" data-name="Ebene 1"><g class="cls-2"><path class="cls-3" d="M81.86,50.64l-6-12.7c4.51-6.38,4.52-14.51-.29-16.88-2.05-1-4.62-.7-7,.86a15.84,15.84,0,0,0-5.38,6.34l0,.1-18.41,4L23.87,74.55l37.2,18.32ZM70.66,25.27c1.22-.78,2.35-1,3.12-.64,1.87.92,1.91,5.22,0,9L72.06,30l-4.13-2a10.52,10.52,0,0,1,2.73-2.69Z"/></g><path class="cls-4" d="M43,56.41a6,6,0,1,0,7.58,3.73A6,6,0,0,0,43,56.41ZM45.58,64a2,2,0,1,1,1.24-2.52A2,2,0,0,1,45.58,64Z"/><path class="cls-4" d="M65.71,61.31a6,6,0,1,0-7.58-3.73,6,6,0,0,0,7.58,3.73Zm-2.57-7.54a2,2,0,1,1,1.28,3.77,2,2,0,0,1-1.28-3.77Z"/><path class="cls-4" d="M50.44,47.24l3.92-.65,3.93,23.9-3.93.64Z"/><path class="cls-3" d="M112.56,56.93A56.28,56.28,0,1,1,0,55.57C.33,24.27,25.81-.37,57.46,0,88.12.36,112.83,25.89,112.56,56.93Zm-6.09-.45a50.2,50.2,0,1,0-50.3,50.25A50.27,50.27,0,0,0,106.47,56.48Z"/></g></g></svg>