<svg xmlns="http://www.w3.org/2000/svg" viewBox="0 0 112.56 112.8"><defs><style>.cls-1{fill:#545454;}</style></defs><g id="Ebene_2" data-name="Ebene 2"><g id="Ebene_1-2" data-name="Ebene 1"><path class="cls-1" d="M77.19,83.76H73.57V77.3c0-6.48-3.56-12.43-10-16.76a4.25,4.25,0,0,1,0-6.16c6.45-4.34,10-10.29,10-16.77V31.15h3.62a2,2,0,0,0,0-4.09h-42a2,2,0,0,0,0,4.09h3.62v6.46c0,6.48,3.56,12.43,10,16.77a4.25,4.25,0,0,1,0,6.16c-6.45,4.33-10,10.28-10,16.76v6.46H35.22a2,2,0,0,0,0,4.09h42a2,2,0,0,0,0-4.09ZM42.94,77.3c0-6.84,5.13-11.31,8.19-13.37a8.26,8.26,0,0,0,0-13c-3.06-2.06-8.19-6.53-8.19-13.37V31.15H69.48v6.46c0,6.84-5.14,11.31-8.2,13.37a8.26,8.26,0,0,0,0,13c3.06,2.06,8.2,6.53,8.2,13.37v6.46H68.8c-1.68-6.32-8.26-16.19-9.33-17-.75-.58-5.78-.58-6.52,0-1.08.84-7.66,10.71-9.34,17h-.68V77.3Z"/><path class="cls-1" d="M112.55,57C112.21,88.46,87,113.08,55.37,112.8,24.42,112.53-.34,87,0,55.66A56.28,56.28,0,1,1,112.55,57Zm-6.06-.39C106.54,28.86,84,6.1,56.43,6.09A50.33,50.33,0,1,0,106.49,56.6Z"/></g></g></svg>