<svg xmlns="http://www.w3.org/2000/svg" viewBox="0 0 99.04 99.06"><defs><style>.cls-1{fill:#262626;}.cls-2{fill:#fff;}</style></defs><g id="Ebene_2" data-name="Ebene 2"><g id="_16" data-name="16"><path class="cls-1" d="M49.52,0a49.52,49.52,0,1,1-35,14.5A49.47,49.47,0,0,1,49.52,0ZM81.79,17.25a45.64,45.64,0,1,0,13.38,32.3,45.45,45.45,0,0,0-13.38-32.3Z"/><path class="cls-1" d="M74.41,27.64a4.22,4.22,0,0,0-3.24-1.5h-4.1V24.86A2.88,2.88,0,0,0,64.2,22H36.4a2.88,2.88,0,0,0-2.88,2.88v1.28h-4.1A4.23,4.23,0,0,0,25.23,31,22,22,0,0,0,36.39,46.71a29.37,29.37,0,0,0,1.84,3.68c2.18,3.66,4.88,6.2,7.86,7.42a6.2,6.2,0,0,1-4.79,6.63h0a1.36,1.36,0,0,0-1,1.32V72H37.72a4.07,4.07,0,0,0-4.07,4.07v3.22A1.35,1.35,0,0,0,35,80.64H65.72a1.34,1.34,0,0,0,1.35-1.35V76.07A4.07,4.07,0,0,0,63,72H60.48V65.77a1.36,1.36,0,0,0-1-1.32h0a6.18,6.18,0,0,1-4.78-6.69,17.23,17.23,0,0,0,7.73-7.36,29.33,29.33,0,0,0,1.83-3.68A22,22,0,0,0,75.36,31,4.17,4.17,0,0,0,74.41,27.64Zm-46.5,2.95a1.47,1.47,0,0,1,.34-1.2,1.56,1.56,0,0,1,1.17-.54h4.1v2.5A42.53,42.53,0,0,0,35,42.53,19.23,19.23,0,0,1,27.91,30.59Zm44.77,0a19.22,19.22,0,0,1-7.05,11.94,43,43,0,0,0,1.44-11.18v-2.5h4.1a1.54,1.54,0,0,1,1.17.54A1.47,1.47,0,0,1,72.68,30.59Z"/><path class="cls-2" d="M57.42,35l-4.1-.59-1.83-3.71a1.35,1.35,0,0,0-2.43,0l-1.83,3.71-4.1.59a1.36,1.36,0,0,0-.75,2.32l3,2.88-.69,4.08a1.35,1.35,0,0,0,2,1.43l3.66-1.92,3.67,1.92a1.37,1.37,0,0,0,.63.16,1.34,1.34,0,0,0,.79-.26,1.36,1.36,0,0,0,.54-1.33l-.69-4.08,3-2.88A1.36,1.36,0,0,0,57.42,35Zm-3.75,4a1.83,1.83,0,0,0-.52,1.62l.47,2.78L51.12,42a1.81,1.81,0,0,0-1.69,0l-2.5,1.31.47-2.78a1.83,1.83,0,0,0-.52-1.62l-2-2,2.79-.41a1.79,1.79,0,0,0,1.37-1L50.28,33l1.25,2.54a1.79,1.79,0,0,0,1.37,1l2.79.41Z"/></g></g></svg>