<svg xmlns="http://www.w3.org/2000/svg" viewBox="0 0 99.04 99.06"><defs><style>.cls-1{fill:#262626;}</style></defs><g id="Ebene_2" data-name="Ebene 2"><g id="_16" data-name="16"><path class="cls-1" d="M49.52,0a49.52,49.52,0,1,1-35,14.5A49.47,49.47,0,0,1,49.52,0ZM81.79,17.25a45.64,45.64,0,1,0,13.38,32.3,45.45,45.45,0,0,0-13.38-32.3Z"/><path class="cls-1" d="M84.11,45.54a1.36,1.36,0,0,0-1.22-.77h-4a29.52,29.52,0,1,0-3.46,20.14,2.69,2.69,0,0,0-4.65-2.69,24.19,24.19,0,1,1,2.61-17.46h-4a1.34,1.34,0,0,0-1.21.78A1.31,1.31,0,0,0,68.43,47L75.15,55a1.33,1.33,0,0,0,2,0L83.92,47a1.36,1.36,0,0,0,.19-1.43Z"/><path class="cls-1" d="M49.87,30.71a2.68,2.68,0,0,0-2.68,2.69V46.29a4.69,4.69,0,0,0,2.68,8.54,4.53,4.53,0,0,0,2-.45l9.34,5.39a2.63,2.63,0,0,0,1.34.37,2.69,2.69,0,0,0,1.35-5l-9.35-5.39a4.71,4.71,0,0,0-2-3.44V33.4a2.7,2.7,0,0,0-2.69-2.69Z"/></g></g></svg>