<svg xmlns="http://www.w3.org/2000/svg" xmlns:xlink="http://www.w3.org/1999/xlink" viewBox="0 0 112.56 112.79"><defs><style>.cls-1{fill:none;}.cls-2{clip-path:url(#clip-path);}.cls-3{fill:#545454;}.cls-4{fill:#fff;}</style><clipPath id="clip-path"><rect class="cls-1" x="27.04" y="27.1" width="59.33" height="61.29"/></clipPath></defs><g id="Ebene_2" data-name="Ebene 2"><g id="Ebene_1-2" data-name="Ebene 1"><g class="cls-2"><path class="cls-3" d="M84.71,27.09H28.61a1.57,1.57,0,1,0,0,3.13H32V86.63a1.56,1.56,0,0,0,2.43,1.31l6.79-4.53L48,88a1.56,1.56,0,0,0,1.73,0l6.8-4.53L63.39,88a1.54,1.54,0,0,0,1.74,0l6.79-4.52L78.75,88a1.58,1.58,0,0,0,.86.26,1.63,1.63,0,0,0,.74-.19,1.55,1.55,0,0,0,.82-1.38l0-56.41h3.56a1.56,1.56,0,0,0,1.56-1.57,1.6,1.6,0,0,0-1.56-1.6Z"/></g><path class="cls-4" d="M42.32,52.09h16.4a1.57,1.57,0,0,0,0-3.14H42.32a1.57,1.57,0,0,0,0,3.14Z"/><path class="cls-4" d="M42.32,57.53H54.61a1.57,1.57,0,1,0,0-3.13H42.32a1.57,1.57,0,0,0,0,3.13Z"/><path class="cls-4" d="M66.91,52.09H71A1.57,1.57,0,0,0,71,49h-4.1a1.57,1.57,0,0,0,0,3.14Z"/><path class="cls-4" d="M66.91,57.53H71a1.57,1.57,0,1,0,0-3.13h-4.1a1.57,1.57,0,0,0,0,3.13Z"/><path class="cls-4" d="M42.32,39.52h16.4a1.57,1.57,0,1,0,0-3.13H42.32a1.57,1.57,0,0,0,0,3.13Z"/><path class="cls-4" d="M42.32,45H54.61a1.57,1.57,0,1,0,0-3.13H42.32a1.57,1.57,0,0,0,0,3.13Z"/><path class="cls-4" d="M66.91,39.52H71a1.57,1.57,0,1,0,0-3.13h-4.1a1.57,1.57,0,0,0,0,3.13Z"/><path class="cls-4" d="M66.91,45H71a1.57,1.57,0,1,0,0-3.13h-4.1a1.57,1.57,0,0,0,0,3.13Z"/><path class="cls-4" d="M42.32,64.81h16.4a1.57,1.57,0,0,0,0-3.14H42.32a1.57,1.57,0,0,0,0,3.14Z"/><path class="cls-4" d="M42.32,70.23H54.61a1.57,1.57,0,1,0,0-3.13H42.32a1.57,1.57,0,0,0,0,3.13Z"/><path class="cls-4" d="M66.91,64.81H71a1.57,1.57,0,0,0,0-3.14h-4.1a1.57,1.57,0,0,0,0,3.14Z"/><path class="cls-4" d="M66.91,70.23H71a1.57,1.57,0,1,0,0-3.13h-4.1a1.57,1.57,0,0,0,0,3.13Z"/><path class="cls-3" d="M112.56,56.93A56.28,56.28,0,1,1,0,55.57C.33,24.27,25.81-.37,57.46,0,88.12.36,112.83,25.89,112.56,56.93Zm-6.09-.45a50.2,50.2,0,1,0-50.3,50.25A50.27,50.27,0,0,0,106.47,56.48Z"/></g></g></svg>