<svg xmlns="http://www.w3.org/2000/svg" viewBox="0 0 112.56 112.8"><defs><style>.cls-1{fill:#333;}.cls-2{fill:#fff;}</style></defs><g id="Ebene_2" data-name="Ebene 2"><g id="Ebene_1-2" data-name="Ebene 1"><path class="cls-1" d="M112.55,57C112.21,88.46,87,113.08,55.37,112.8,24.42,112.53-.34,87,0,55.66A56.28,56.28,0,1,1,112.55,57Zm-6.06-.39C106.54,28.86,84,6.1,56.43,6.09A50.33,50.33,0,1,0,106.49,56.6Z"/><path class="cls-1" d="M84,31.64a4.78,4.78,0,0,0-3.66-1.7H75.7V28.49a3.26,3.26,0,0,0-3.25-3.25H41a3.26,3.26,0,0,0-3.25,3.25v1.45H33.15a4.78,4.78,0,0,0-3.66,1.7,4.72,4.72,0,0,0-1.08,3.83A24.84,24.84,0,0,0,41,53.2a32.76,32.76,0,0,0,2.07,4.15c2.46,4.14,5.52,7,8.89,8.39a7,7,0,0,1-5.42,7.5h0a1.53,1.53,0,0,0-1.17,1.49v7H42.53a4.61,4.61,0,0,0-4.6,4.6V90a1.52,1.52,0,0,0,1.53,1.53h34.7A1.53,1.53,0,0,0,75.7,90V86.37a4.62,4.62,0,0,0-4.61-4.6H68.25v-7a1.54,1.54,0,0,0-1.18-1.49h0a7,7,0,0,1-5.41-7.56c3.31-1.4,6.31-4.24,8.74-8.32a32.76,32.76,0,0,0,2.07-4.15A24.8,24.8,0,0,0,85.06,35.47,4.68,4.68,0,0,0,84,31.64ZM31.44,35a1.69,1.69,0,0,1,.38-1.36A1.79,1.79,0,0,1,33.15,33h4.63v2.83a48.23,48.23,0,0,0,1.64,12.63A21.71,21.71,0,0,1,31.44,35ZM82,35a21.65,21.65,0,0,1-8,13.49A48.23,48.23,0,0,0,75.7,35.84V33h4.63a1.76,1.76,0,0,1,1.32.61A1.65,1.65,0,0,1,82,35Z"/><path class="cls-2" d="M64.78,39.94l-4.62-.67-2.07-4.2a1.54,1.54,0,0,0-2.75,0l-2.07,4.2-4.63.67a1.54,1.54,0,0,0-.85,2.61l3.35,3.27-.79,4.6A1.54,1.54,0,0,0,52.58,52l4.13-2.17L60.85,52a1.51,1.51,0,0,0,1.62-.12,1.55,1.55,0,0,0,.61-1.5l-.8-4.6,3.35-3.27a1.53,1.53,0,0,0-.85-2.61ZM60.55,44.4A2.08,2.08,0,0,0,60,46.23l.54,3.14-2.83-1.48a2,2,0,0,0-1.92,0l-2.82,1.48.54-3.14a2.08,2.08,0,0,0-.6-1.83l-2.28-2.23,3.16-.46a2,2,0,0,0,1.55-1.12l1.41-2.87,1.42,2.87a2,2,0,0,0,1.55,1.12l3.16.46Z"/></g></g></svg>