<svg xmlns="http://www.w3.org/2000/svg" viewBox="0 0 112.56 112.8"><defs><style>.cls-1{fill:#545454;}.cls-2{fill:#fff;}</style></defs><g id="Ebene_2" data-name="Ebene 2"><g id="Ebene_1-2" data-name="Ebene 1"><path class="cls-1" d="M21.3,76H92.41a1.45,1.45,0,0,0,1.44-1.45V51a1.44,1.44,0,0,0-1.44-1.44H69.86V36.07a1.45,1.45,0,0,0-1.45-1.44H45.29a1.45,1.45,0,0,0-1.45,1.44v7.66H21.3a1.45,1.45,0,0,0-1.45,1.45V74.52A1.45,1.45,0,0,0,21.3,76Z"/><path class="cls-2" d="M54,52.41a1.45,1.45,0,1,0,0,2.89h5.78a1.45,1.45,0,1,0,0-2.89H58.3V42.29a1.45,1.45,0,0,0-1.45-1.45H54a1.45,1.45,0,1,0,0,2.89h1.45v8.68Z"/><path class="cls-2" d="M36.18,61.08a1.45,1.45,0,0,0,1.45-1.45V53.85a1.44,1.44,0,0,0-1.45-1.44H30.4a1.45,1.45,0,0,0,0,2.89h4.34v2.89H30.4A1.43,1.43,0,0,0,29,59.63v5.78a1.44,1.44,0,0,0,1.44,1.45h5.78a1.45,1.45,0,1,0,0-2.89H31.85V61.08Z"/><path class="cls-2" d="M77.52,61.08a1.45,1.45,0,1,0,0,2.89h4.33v2.89H77.52a1.45,1.45,0,1,0,0,2.89H83.3a1.45,1.45,0,0,0,1.45-1.45V56.74A1.44,1.44,0,0,0,83.3,55.3H77.52a1.45,1.45,0,1,0,0,2.89h4.33v2.89Z"/><path class="cls-1" d="M112.55,57C112.21,88.46,87,113.08,55.37,112.8,24.42,112.53-.34,87,0,55.66A56.28,56.28,0,1,1,112.55,57Zm-6.06-.39C106.54,28.86,84,6.1,56.43,6.09A50.33,50.33,0,1,0,106.49,56.6Z"/></g></g></svg>