<svg xmlns="http://www.w3.org/2000/svg" viewBox="0 0 112.56 112.79"><defs><style>.cls-1{fill:#545454;}.cls-2{fill:#fff;}</style></defs><g id="Ebene_2" data-name="Ebene 2"><g id="Ebene_1-2" data-name="Ebene 1"><path class="cls-1" d="M78.48,30.31H70.85V25.68H66.21v4.63H45.31V25.68H40.67v4.63H33a7,7,0,0,0-6.95,7V78.06a7,7,0,0,0,7,7H78.48a7,7,0,0,0,7-7V37.27A7,7,0,0,0,78.48,30.31ZM33,35h7.63v3h4.64V35h20.9v3h4.64V35h7.63a2.32,2.32,0,0,1,2.32,2.32v9.56H30.73V37.27A2.32,2.32,0,0,1,33,35Z"/><rect class="cls-2" x="34.9" y="53.33" width="4.64" height="4.64"/><rect class="cls-2" x="44.17" y="53.33" width="4.64" height="4.64"/><rect class="cls-2" x="53.44" y="53.33" width="4.64" height="4.64"/><rect class="cls-2" x="71.99" y="53.33" width="4.64" height="4.64"/><rect class="cls-2" x="34.9" y="62.61" width="4.64" height="4.64"/><rect class="cls-2" x="53.44" y="62.61" width="4.64" height="4.64"/><rect class="cls-2" x="62.72" y="62.61" width="4.64" height="4.64"/><rect class="cls-2" x="34.9" y="71.88" width="4.64" height="4.64"/><rect class="cls-2" x="44.17" y="71.88" width="4.64" height="4.64"/><rect class="cls-2" x="53.44" y="71.88" width="4.64" height="4.64"/><rect class="cls-2" x="62.72" y="71.88" width="4.64" height="4.64"/><rect class="cls-2" x="71.99" y="62.61" width="4.64" height="4.64"/><path class="cls-1" d="M112.56,56.93A56.28,56.28,0,1,1,0,55.57C.33,24.27,25.81-.37,57.46,0,88.12.36,112.83,25.89,112.56,56.93Zm-6.09-.45a50.2,50.2,0,1,0-50.3,50.25A50.27,50.27,0,0,0,106.47,56.48Z"/></g></g></svg>