<svg xmlns="http://www.w3.org/2000/svg" xmlns:xlink="http://www.w3.org/1999/xlink" viewBox="0 0 112.56 112.8"><defs><style>.cls-1{fill:none;}.cls-2{fill:#333;}.cls-3{clip-path:url(#clip-path);}</style><clipPath id="clip-path"><rect class="cls-1" x="24.41" y="29.33" width="63.11" height="53.63"/></clipPath></defs><g id="Ebene_2" data-name="Ebene 2"><g id="Ebene_1-2" data-name="Ebene 1"><path class="cls-2" d="M112.55,57C112.21,88.46,87,113.08,55.37,112.8,24.42,112.53-.34,87,0,55.66A56.28,56.28,0,1,1,112.55,57Zm-6.06-.39C106.54,28.86,84,6.1,56.43,6.09A50.33,50.33,0,1,0,106.49,56.6Z"/><g class="cls-3"><path class="cls-2" d="M87.43,79.43,83.51,63.74a2.71,2.71,0,0,0-.28-.68,5.71,5.71,0,0,0,.35-2V35.21a5.89,5.89,0,0,0-5.88-5.88H34.25a5.89,5.89,0,0,0-5.88,5.88V61.07a5.71,5.71,0,0,0,.35,2,2.71,2.71,0,0,0-.28.68l-4,15.81A2.64,2.64,0,0,0,27,82.83H84.91a2.64,2.64,0,0,0,2.64-2.64,2.42,2.42,0,0,0-.12-.76Zm-24.77-.72H49.3a.53.53,0,0,1-.4-.19.51.51,0,0,1-.11-.43l1-5.77a.52.52,0,0,1,.51-.43H61.61a.52.52,0,0,1,.51.43l1,5.73a.59.59,0,0,1,0,.14.53.53,0,0,1-.52.52ZM78.44,61.07a.72.72,0,0,1-.43.67H33.94a.73.73,0,0,1-.43-.67V35.21a.74.74,0,0,1,.74-.74H77.7a.74.74,0,0,1,.74.74Z"/></g><path class="cls-2" d="M57.41,47.05l1.64-.45a.79.79,0,0,0,.58-.71.8.8,0,0,0-.5-.77l-7.59-2.88a.78.78,0,0,0-1,1l2.88,7.59a.78.78,0,0,0,1.48-.07l.45-1.65L59.18,53a.78.78,0,0,0,1.1,0l1-1a.78.78,0,0,0,0-1.1Z"/></g></g></svg>