<svg xmlns="http://www.w3.org/2000/svg" xmlns:xlink="http://www.w3.org/1999/xlink" viewBox="0 0 99.04 99.06"><defs><style>.cls-1{fill:none;}.cls-2{fill:#262626;}.cls-3{clip-path:url(#clip-path);}.cls-4{fill:#fff;}</style><clipPath id="clip-path"><rect id="SVGID" class="cls-1" x="23.94" y="23.63" width="52.5" height="54.23"/></clipPath></defs><g id="Ebene_2" data-name="Ebene 2"><g id="_16" data-name="16"><path class="cls-2" d="M49.52,0a49.52,49.52,0,1,1-35,14.5A49.47,49.47,0,0,1,49.52,0ZM81.79,17.25a45.64,45.64,0,1,0,13.38,32.3,45.45,45.45,0,0,0-13.38-32.3Z"/><g class="cls-3"><path class="cls-2" d="M75,23.62H25.33a1.39,1.39,0,1,0,0,2.77h3V76.3A1.39,1.39,0,0,0,29,77.53a1.37,1.37,0,0,0,1.42-.07l6-4,6,4a1.39,1.39,0,0,0,1.54,0l6-4,6,4a1.39,1.39,0,0,0,1.54,0l6-4,6,4a1.38,1.38,0,0,0,.76.23,1.43,1.43,0,0,0,.66-.16,1.38,1.38,0,0,0,.73-1.22l0-49.92H75A1.38,1.38,0,0,0,76.35,25,1.42,1.42,0,0,0,75,23.62Z"/></g><path class="cls-4" d="M37.46,45.74H52A1.39,1.39,0,0,0,52,43H37.46a1.39,1.39,0,1,0,0,2.77Z"/><path class="cls-4" d="M37.46,50.55H48.33a1.39,1.39,0,1,0,0-2.77H37.46a1.39,1.39,0,0,0-1.39,1.39,1.38,1.38,0,0,0,1.39,1.38Z"/><path class="cls-4" d="M59.22,45.74h3.62a1.39,1.39,0,1,0,0-2.77H59.22a1.39,1.39,0,1,0,0,2.77Z"/><path class="cls-4" d="M59.22,50.55h3.62a1.39,1.39,0,1,0,0-2.77H59.22a1.39,1.39,0,0,0-1.39,1.39,1.38,1.38,0,0,0,1.39,1.38Z"/><path class="cls-4" d="M37.46,34.62H52a1.39,1.39,0,0,0,0-2.77H37.46a1.39,1.39,0,1,0,0,2.77Z"/><path class="cls-4" d="M37.46,39.42H48.33a1.39,1.39,0,1,0,0-2.77H37.46A1.4,1.4,0,0,0,36.07,38a1.38,1.38,0,0,0,1.39,1.38Z"/><path class="cls-4" d="M59.22,34.62h3.62a1.39,1.39,0,1,0,0-2.77H59.22a1.39,1.39,0,1,0,0,2.77Z"/><path class="cls-4" d="M59.22,39.42h3.62a1.39,1.39,0,1,0,0-2.77H59.22A1.4,1.4,0,0,0,57.83,38a1.38,1.38,0,0,0,1.39,1.38Z"/><path class="cls-4" d="M37.46,57H52a1.39,1.39,0,0,0,0-2.77H37.46a1.39,1.39,0,0,0-1.39,1.39A1.38,1.38,0,0,0,37.46,57Z"/><path class="cls-4" d="M37.46,61.79H48.33a1.39,1.39,0,1,0,0-2.77H37.46a1.4,1.4,0,0,0-1.39,1.39,1.38,1.38,0,0,0,1.39,1.38Z"/><path class="cls-4" d="M59.22,57h3.62a1.39,1.39,0,1,0,0-2.77H59.22a1.39,1.39,0,0,0-1.39,1.39A1.38,1.38,0,0,0,59.22,57Z"/><path class="cls-4" d="M59.22,61.79h3.62a1.39,1.39,0,1,0,0-2.77H59.22a1.4,1.4,0,0,0-1.39,1.39,1.38,1.38,0,0,0,1.39,1.38Z"/></g></g></svg>