<svg xmlns="http://www.w3.org/2000/svg" viewBox="0 0 99.04 99.06"><defs><style>.cls-1{fill:#262626;}</style></defs><g id="Ebene_2" data-name="Ebene 2"><g id="_16" data-name="16"><path class="cls-1" d="M49.52,0a49.52,49.52,0,1,1-35,14.5A49.47,49.47,0,0,1,49.52,0ZM81.79,17.25a45.64,45.64,0,1,0,13.38,32.3,45.45,45.45,0,0,0-13.38-32.3Z"/><path class="cls-1" d="M61.53,27.7A24.91,24.91,0,0,1,73.93,42a10.73,10.73,0,0,1,4.23,1.8A28.5,28.5,0,0,0,62.35,24.1,12,12,0,0,1,61.53,27.7Z"/><path class="cls-1" d="M55,74.26a25,25,0,0,1-4.53.43,25.39,25.39,0,0,1-5.19-.55,10.89,10.89,0,0,1-3.66,2.72,28.16,28.16,0,0,0,17.06.21A11,11,0,0,1,55,74.26Z"/><path class="cls-1" d="M26.76,42.36A24.9,24.9,0,0,1,39.12,27.79a11.93,11.93,0,0,1-.85-3.59A28.49,28.49,0,0,0,22.61,44,10.71,10.71,0,0,1,26.76,42.36Z"/><path class="cls-1" d="M37.68,36.72v4.22a1.05,1.05,0,0,0,1,1.06H62a1.05,1.05,0,0,0,1-1.06V36.72a9.51,9.51,0,0,0-7.7-9.32,7.4,7.4,0,1,0-9.93,0A9.51,9.51,0,0,0,37.68,36.72Z"/><path class="cls-1" d="M19.73,72.23H43A1.05,1.05,0,0,0,44,71.17V67a9.51,9.51,0,0,0-7.7-9.32,7.39,7.39,0,1,0-9.94,0A9.51,9.51,0,0,0,18.67,67v4.22A1.06,1.06,0,0,0,19.73,72.23Z"/><path class="cls-1" d="M74.31,57.63a7.39,7.39,0,1,0-9.93,0A9.51,9.51,0,0,0,56.68,67v4.22a1.05,1.05,0,0,0,1,1.06H81A1.05,1.05,0,0,0,82,71.17V67A9.51,9.51,0,0,0,74.31,57.63Z"/></g></g></svg>