<svg xmlns="http://www.w3.org/2000/svg" viewBox="0 0 112.55 112.78"><defs><style>.cls-1{fill:#545454;}</style></defs><g id="Ebene_2" data-name="Ebene 2"><g id="Ebene_1-2" data-name="Ebene 1"><path class="cls-1" d="M95.25,52a1.54,1.54,0,0,0-1.38-.87h-4.5a33.36,33.36,0,1,0-3.9,22.76,3,3,0,0,0-5.26-3,27.34,27.34,0,1,1,3-19.73H78.7a1.51,1.51,0,0,0-1.37.88,1.46,1.46,0,0,0,.21,1.61l7.58,9.11a1.48,1.48,0,0,0,1.16.54,1.51,1.51,0,0,0,1.17-.54L95,53.61A1.52,1.52,0,0,0,95.25,52Z"/><path class="cls-1" d="M56.55,35.24a3,3,0,0,0-3,3V52.85A5.3,5.3,0,0,0,58.8,62l10.55,6.09A3,3,0,0,0,73.5,67a3,3,0,0,0-1.11-4.14l-10.57-6.1a5.28,5.28,0,0,0-2.23-3.88V38.28a3,3,0,0,0-3-3Z"/><path class="cls-1" d="M112.55,56.1A56.28,56.28,0,1,1,55.67,0,56.32,56.32,0,0,1,112.55,56.1Zm-6.08.58A50.21,50.21,0,1,0,6.06,56c-.14,27.77,22,50.61,49.87,50.63A50,50,0,0,0,106.47,56.68Z"/></g></g></svg>