<?xml version="1.0" encoding="utf-8"?>
<!-- Generator: Adobe Illustrator 25.0.0, SVG Export Plug-In . SVG Version: 6.00 Build 0)  -->
<svg version="1.1" id="Ebene_1" xmlns="http://www.w3.org/2000/svg" xmlns:xlink="http://www.w3.org/1999/xlink" x="0px" y="0px"
	 viewBox="0 0 166.7 188.5" style="enable-background:new 0 0 166.7 188.5;" xml:space="preserve">
<style type="text/css">
	.st0{fill:#FFFFFF;}
</style>
<g id="Ebene_1-2">
	<path class="st0" d="M92.7,49.5l39.2-39.3c2.3-2.4,2.1-6.2-0.3-8.5c-2.3-2.1-5.9-2.1-8.2,0L84.2,41L44.9,1.8
		c-2.4-2.3-6.2-2.1-8.5,0.3c-2.1,2.3-2.1,5.9,0,8.2l39.3,39.3L36.4,88.8c-2.4,2.3-2.6,6.1-0.3,8.5c2.3,2.4,6.1,2.6,8.5,0.3
		c0.1-0.1,0.2-0.2,0.3-0.3L84.2,58l39.3,39.3c2.4,2.3,6.2,2.1,8.5-0.3c2.1-2.3,2.1-5.9,0-8.2L92.7,49.5z"/>
</g>
</svg>
