<svg xmlns="http://www.w3.org/2000/svg" viewBox="0 0 166.74 188.46"><defs><style>.cls-1{fill:#fff;}</style></defs><g id="Ebene_2" data-name="Ebene 2"><g id="Ebene_1-2" data-name="Ebene 1"><path class="cls-1" d="M19.62,150.69q-6.73,0-10.63,4.49t-3.9,12.29q0,8,3.76,12.39t10.72,4.38a36.37,36.37,0,0,0,9.75-1.54v4.17a30.06,30.06,0,0,1-10.48,1.59q-9,0-13.93-5.48T0,167.41a24.65,24.65,0,0,1,2.36-11.07A17,17,0,0,1,9.18,149a20.61,20.61,0,0,1,10.5-2.57,25.42,25.42,0,0,1,11.24,2.34l-2,4.08A21.68,21.68,0,0,0,19.62,150.69Z"/><path class="cls-1" d="M38.24,187.9V147H43V183.6H61v4.3Z"/><path class="cls-1" d="M103.43,167.41q0,9.81-5,15.43t-13.8,5.62q-9,0-13.93-5.52t-4.91-15.59q0-10,4.92-15.47t14-5.49q8.8,0,13.75,5.59T103.43,167.41Zm-32.57,0q0,8.31,3.54,12.59t10.27,4.29q6.8,0,10.26-4.27t3.47-12.61q0-8.25-3.46-12.51t-10.21-4.26q-6.8,0-10.33,4.29T70.86,167.41Z"/><path class="cls-1" d="M135.6,177a10,10,0,0,1-3.91,8.41q-3.91,3-10.62,3-7.27,0-11.18-1.87V182a30,30,0,0,0,11.35,2.29c3.16,0,5.55-.6,7.15-1.8a5.91,5.91,0,0,0,2.4-5,6.46,6.46,0,0,0-.85-3.48,8,8,0,0,0-2.85-2.5,40.33,40.33,0,0,0-6.08-2.6q-5.7-2-8.15-4.83a10.7,10.7,0,0,1-2.44-7.3,9.06,9.06,0,0,1,3.55-7.52q3.54-2.79,9.39-2.79a27.7,27.7,0,0,1,11.21,2.23l-1.48,4.14a25.33,25.33,0,0,0-9.84-2.13,9.53,9.53,0,0,0-5.9,1.63,5.33,5.33,0,0,0-2.13,4.5,7,7,0,0,0,.79,3.48,7.32,7.32,0,0,0,2.64,2.48,32.66,32.66,0,0,0,5.69,2.51q6.42,2.28,8.85,4.92A9.67,9.67,0,0,1,135.6,177Z"/><path class="cls-1" d="M166.74,187.9H144V147h22.78v4.22h-18v13.17h16.94v4.19H148.71v15h18Z"/><path class="cls-1" d="M92.67,49.5l39.25-39.26a6,6,0,0,0-8.48-8.48L84.18,41,44.92,1.76a6,6,0,0,0-8.48,8.48L75.7,49.5,36.44,88.76a6,6,0,1,0,8.48,8.48L84.18,58l39.26,39.26a6,6,0,0,0,8.48-8.48Z"/></g></g></svg>