<svg xmlns="http://www.w3.org/2000/svg" viewBox="0 0 907 870"><defs><style>.cls-1{fill:#333;}</style></defs><g id="Ebene_2" data-name="Ebene 2"><g id="Layer_5" data-name="Layer 5"><path class="cls-1" d="M821.43,543.75v161c0,45-37.42,81.57-83.42,81.57H169c-46,0-83.42-36.59-83.42-81.57v-161H0v161C0,795.88,75.81,870,169,870H738c93.18,0,169-74.12,169-165.22v-161Z"/><path class="cls-1" d="M418.4,732.24a45.93,45.93,0,0,0,32.29,13.22h.22a46,46,0,0,0,32.21-12.93L731.35,492.09a44.11,44.11,0,0,0,.31-63.28l-7.14-7.05a46,46,0,0,0-32.31-13.22H692a46,46,0,0,0-32.21,12.94L509.12,567.42V56.47C509.12,25.33,483.21,0,451.36,0S393.6,25.33,393.6,56.47v510L244.82,419.69a45.92,45.92,0,0,0-32.29-13.21h-.22a46,46,0,0,0-32.2,12.92l-7.22,7a44.09,44.09,0,0,0-.31,63.27Z"/></g></g></svg>