<?xml version="1.0" encoding="utf-8"?>
<!-- Generator: Adobe Illustrator 24.3.0, SVG Export Plug-In . SVG Version: 6.00 Build 0)  -->
<svg version="1.1" id="Layer_1" xmlns="http://www.w3.org/2000/svg" xmlns:xlink="http://www.w3.org/1999/xlink" x="0px" y="0px"
	 viewBox="0 0 907 870" style="enable-background:new 0 0 907 870;" xml:space="preserve">
<style type="text/css">
	.st0{fill:#545454;}
</style>
<g id="Ebene_2">
	<g id="Layer_5">
		<path class="st0" d="M821.4,543.8v161c0,45-37.4,81.6-83.4,81.6H169c-46,0-83.4-36.6-83.4-81.6v-161H0v161
			C0,795.9,75.8,870,169,870h569c93.2,0,169-74.1,169-165.2v-161L821.4,543.8z"/>
		<path class="st0" d="M418.4,732.2c8.6,8.5,20.2,13.2,32.3,13.2h0.2c12,0.1,23.6-4.6,32.2-12.9l248.2-240.4
			c17.6-16.9,18.1-44.8,1.2-62.4c-0.3-0.3-0.6-0.6-0.9-0.9l-7.1-7c-8.6-8.5-20.2-13.2-32.3-13.2H692c-12-0.1-23.6,4.6-32.2,12.9
			L509.1,567.4V56.5c0-31.1-25.9-56.5-57.8-56.5s-57.8,25.3-57.8,56.5v510L244.8,419.7c-8.6-8.5-20.2-13.2-32.3-13.2h-0.2
			c-12-0.1-23.6,4.6-32.2,12.9l-7.2,7c-17.6,16.9-18.1,44.8-1.2,62.3c0.3,0.3,0.6,0.6,0.9,0.9L418.4,732.2z"/>
	</g>
</g>
</svg>
