<svg xmlns="http://www.w3.org/2000/svg" viewBox="0 0 114.98 112.93"><defs><style>.cls-1{fill:#333;}</style></defs><g id="Ebene_2" data-name="Ebene 2"><g id="Ebene_1-2" data-name="Ebene 1"><path class="cls-1" d="M56.28,106.75h-.15a50.33,50.33,0,0,1,.3-100.66C84,6.1,106.54,28.86,106.49,56.6a50.24,50.24,0,0,1-3.55,18.45h6.5A57.14,57.14,0,0,0,112.55,57,56.28,56.28,0,1,0,0,55.66C-.34,87,24.42,112.53,55.37,112.8h.91Z"/><path class="cls-1" d="M25.35,66.79l-1.61-.6a2,2,0,0,0-2.49,1.15l-.75,2a1.93,1.93,0,0,0,.06,1.49,1.88,1.88,0,0,0,1.09,1l1.61.6A12.18,12.18,0,0,0,23.39,76l-1.55.71a2,2,0,0,0-.95,2.58l.91,2a2,2,0,0,0,2.57,1l1.56-.72a12.46,12.46,0,0,0,2.61,2.42L28,85.54A1.94,1.94,0,0,0,29.1,88l2,.75a1.93,1.93,0,0,0,2.49-1.15l.6-1.61a12.18,12.18,0,0,0,3.56-.13l.71,1.55a1.94,1.94,0,0,0,2.57,1l2-.9A1.93,1.93,0,0,0,44,84.92l-.71-1.56a12.26,12.26,0,0,0,2.42-2.62l1.61.6a2,2,0,0,0,1.48-.06,1.91,1.91,0,0,0,1-1.09l.76-2a2,2,0,0,0-1.15-2.49l-1.61-.59a12.17,12.17,0,0,0-.13-3.56l1.55-.72a1.94,1.94,0,0,0,.95-2.57l-.91-2a1.94,1.94,0,0,0-2.57-1L45.11,66A12.15,12.15,0,0,0,42.5,63.6L43.09,62a1.94,1.94,0,0,0-1.15-2.49l-2-.76a2,2,0,0,0-2.49,1.15l-.6,1.61a12.55,12.55,0,0,0-3.56.14l-.71-1.56A2,2,0,0,0,30,59.13L28,60a2,2,0,0,0-.95,2.57l.72,1.55A12.55,12.55,0,0,0,25.35,66.79Zm7,0a7.6,7.6,0,0,1,3.2-.7,7.66,7.66,0,1,1-3.2.7Z"/><path class="cls-1" d="M88.89,47.09l-2.7-1a20.8,20.8,0,0,0-.23-6l2.61-1.2a3.26,3.26,0,0,0,1.6-4.33l-1.53-3.31a3.26,3.26,0,0,0-4.32-1.6l-2.61,1.21A20.71,20.71,0,0,0,77.3,26.8l1-2.7a3.26,3.26,0,0,0-1.93-4.19L73,18.64a3.35,3.35,0,0,0-4.19,1.93l-1,2.71a20.8,20.8,0,0,0-6,.23l-1.21-2.62a3.25,3.25,0,0,0-4.32-1.59l-3.31,1.52a3.26,3.26,0,0,0-1.6,4.33l1.21,2.61a20.47,20.47,0,0,0-4.07,4.41l-2.7-1a3.33,3.33,0,0,0-4.19,1.92l-1.26,3.43A3.21,3.21,0,0,0,40.42,39a3.26,3.26,0,0,0,1.83,1.69l2.71,1a20.13,20.13,0,0,0,.23,6l-2.62,1.2A3.25,3.25,0,0,0,41,53.21l1.52,3.32a3.27,3.27,0,0,0,4.33,1.6l2.61-1.21A20.66,20.66,0,0,0,53.84,61l-1,2.7a3.25,3.25,0,0,0,1.92,4.19l3.42,1.27a3.33,3.33,0,0,0,2.5-.1,3.26,3.26,0,0,0,1.69-1.83l1-2.71a20.82,20.82,0,0,0,6-.23l1.2,2.62a3.26,3.26,0,0,0,4.33,1.59L78.21,67a3.26,3.26,0,0,0,1.59-4.33L78.6,60a20.68,20.68,0,0,0,4.07-4.4l2.7,1a3.28,3.28,0,0,0,2.5-.1,3.23,3.23,0,0,0,1.69-1.83l1.26-3.43A3.26,3.26,0,0,0,88.89,47.09ZM71,55.6a12.75,12.75,0,0,1-5.39,1.19,12.89,12.89,0,0,1-5.4-24.6A12.75,12.75,0,0,1,65.57,31,12.89,12.89,0,0,1,71,55.6Z"/><path class="cls-1" d="M62.18,79.08h14.5v4.84H67.5v8.94h7.3V97.7H67.5v10.4h9.18v4.83H62.18Z"/><path class="cls-1" d="M79.73,79.08h7.88q4.11,0,6,1.91c1.25,1.28,1.88,3.23,1.88,5.88V89c0,3.51-1.16,5.74-3.48,6.67v.1a4.11,4.11,0,0,1,2.73,2.37,11.91,11.91,0,0,1,.8,4.78v5.95a21.25,21.25,0,0,0,.1,2.35,5.71,5.71,0,0,0,.48,1.76H90.71a7,7,0,0,1-.39-1.55,21.67,21.67,0,0,1-.1-2.61v-6.19a5.28,5.28,0,0,0-.75-3.24,3.17,3.17,0,0,0-2.58-.92H85.05v14.51H79.73ZM87,93.59a3.2,3.2,0,0,0,2.4-.82A3.91,3.91,0,0,0,90.17,90V87.4a4.26,4.26,0,0,0-.65-2.66,2.45,2.45,0,0,0-2-.82H85.05v9.67Z"/><path class="cls-1" d="M99.22,79.08h7.83c2.64,0,4.63.71,6,2.13s2,3.5,2,6.24v3.33q0,4.11-2,6.24c-1.32,1.42-3.31,2.13-6,2.13h-2.51v13.78H99.22Zm7.83,15.23a2.52,2.52,0,0,0,2-.72,3.71,3.71,0,0,0,.65-2.47v-4a3.73,3.73,0,0,0-.65-2.47,2.52,2.52,0,0,0-2-.72h-2.51V94.31Z"/></g></g></svg>