<svg xmlns="http://www.w3.org/2000/svg" viewBox="0 0 99.04 99.04"><defs><style>.cls-1,.cls-2{fill:#fff;}.cls-2{fill-rule:evenodd;}</style></defs><g id="Ebene_2" data-name="Ebene 2"><g id="_16" data-name="16"><path class="cls-1" d="M49.52,0a49.51,49.51,0,1,1-35,14.5A49.34,49.34,0,0,1,49.52,0Zm32.3,17.25A45.71,45.71,0,1,0,95.17,49.52,45.59,45.59,0,0,0,81.82,17.25Z"/><path class="cls-2" d="M53.3,39.4V35.34a2.13,2.13,0,0,1,2.22-2.41H61.2V24.27H53.38c-8.69,0-10.63,6.41-10.63,10.58V39.4h-5V49.52h5.1V74.8H52.92V49.52H60.4l.33-4,.61-6.14Z"/></g></g></svg>