<?xml version="1.0" encoding="utf-8"?>
<!-- Generator: Adobe Illustrator 24.3.0, SVG Export Plug-In . SVG Version: 6.00 Build 0)  -->
<svg version="1.1" id="Layer_1" xmlns="http://www.w3.org/2000/svg" xmlns:xlink="http://www.w3.org/1999/xlink" x="0px" y="0px"
	 viewBox="0 0 170 27" style="enable-background:new 0 0 170 27;" xml:space="preserve">
<style type="text/css">
	.st0{fill:#181716;}
	.st1{fill:url(#SVGID_1_);}
	.st2{fill:url(#SVGID_2_);}
	.st3{fill:url(#SVGID_3_);}
	.st4{fill:url(#SVGID_4_);}
</style>
<g id="Ebene_2">
	<g id="Ebene_2-2">
		<path class="st0" d="M39.7,9.5v7.5h-4.2V1.3h4.2v6.9h6.9V1.3h4.2v15.7h-4.2V9.5H39.7z"/>
		<path class="st0" d="M69.4,1.3v1.3h-8.6v5.2H68v1.3h-7.1v6.2h8.6v1.6H56.7V1.3H69.4z"/>
		<path class="st0" d="M74.1,1.3h4.2v14.1H87v1.6H74.1V1.3z"/>
		<path class="st0" d="M89.7,1.3l5.6,10.8l5.2-10.8h2.7l-7.7,15.9h-2L85.3,1.3H89.7z"/>
		<path class="st0" d="M119.3,1.3v1.3h-8.6v5.2h7.1v1.3h-7.1v6.2h8.6v1.6h-12.8V1.3H119.3z"/>
		<path class="st0" d="M138.2,1.3v1.3h-5.9v14.3h-4.2V2.6h-5.9V1.3H138.2z"/>
		<path class="st0" d="M141.9,1.3h4.2v15.7h-4.2V1.3z"/>
		<path class="st0" d="M153.1,16.9h-2.9l7.3-7.7l-6.5-7.9h4.6l4.3,5.3l5-5.3h2.9l-6.6,7l7.1,8.7h-4.6l-5-6L153.1,16.9z"/>
		<path class="st0" d="M36.3,22.9c0,0.3,0.1,0.6,0.2,0.9c0.1,0.3,0.3,0.5,0.5,0.7c0.2,0.2,0.4,0.3,0.7,0.4c0.3,0.1,0.6,0.2,0.9,0.2
			c0.2,0,0.4,0,0.6-0.1c0.2-0.1,0.3-0.2,0.5-0.3c0.1-0.1,0.3-0.2,0.4-0.4c0.1-0.1,0.2-0.3,0.3-0.4l0.4,0.2c-0.1,0.2-0.2,0.3-0.4,0.5
			c-0.2,0.2-0.3,0.3-0.5,0.4c-0.2,0.1-0.4,0.2-0.7,0.3c-0.3,0.1-0.6,0.1-0.8,0.1c-0.4,0-0.8-0.1-1.2-0.2c-0.4-0.1-0.7-0.3-1-0.6
			c-0.5-0.5-0.8-1.1-0.8-1.8c0-0.3,0.1-0.7,0.2-1c0.1-0.3,0.4-0.6,0.6-0.8c0.3-0.2,0.6-0.4,1-0.6c0.4-0.1,0.8-0.2,1.2-0.2
			c0.3,0,0.5,0,0.8,0.1c0.2,0.1,0.5,0.2,0.7,0.3c0.2,0.1,0.4,0.3,0.5,0.4c0.2,0.1,0.3,0.3,0.4,0.5l-0.4,0.2
			c-0.2-0.4-0.4-0.7-0.8-0.9c-0.3-0.2-0.6-0.3-1-0.3c-0.3,0-0.6,0-0.9,0.2c-0.3,0.1-0.5,0.3-0.7,0.4c-0.2,0.2-0.4,0.5-0.5,0.7
			C36.3,22.3,36.3,22.6,36.3,22.9z"/>
		<path class="st0" d="M47.9,25.6c-0.3,0-0.5,0-0.8-0.1c-0.3-0.1-0.5-0.2-0.7-0.3c-0.2-0.1-0.4-0.3-0.6-0.4
			c-0.2-0.2-0.3-0.3-0.5-0.5c-0.1-0.2-0.2-0.4-0.3-0.6c-0.1-0.2-0.1-0.5-0.1-0.7c0-0.2,0-0.5,0.1-0.7c0.1-0.2,0.2-0.4,0.3-0.6
			c0.1-0.2,0.3-0.4,0.5-0.5c0.2-0.2,0.4-0.3,0.6-0.4c0.2-0.1,0.5-0.2,0.7-0.3c0.3-0.1,0.5-0.1,0.8-0.1c0.4,0,0.8,0.1,1.2,0.2
			c0.4,0.1,0.7,0.3,1,0.6c0.3,0.2,0.5,0.5,0.6,0.8c0.1,0.3,0.2,0.6,0.2,1c0,0.2,0,0.5-0.1,0.7c-0.1,0.2-0.2,0.4-0.3,0.6
			c-0.1,0.2-0.3,0.4-0.5,0.5c-0.2,0.2-0.4,0.3-0.6,0.4c-0.2,0.1-0.5,0.2-0.7,0.3C48.4,25.5,48.2,25.5,47.9,25.6z M47.9,25.3
			c0.3,0,0.6-0.1,0.8-0.2c0.2-0.1,0.5-0.3,0.6-0.5c0.2-0.2,0.3-0.5,0.4-0.8c0.1-0.3,0.1-0.7,0.1-1c0-0.3,0-0.6-0.1-0.9
			c-0.1-0.3-0.2-0.5-0.4-0.7c-0.2-0.2-0.4-0.4-0.6-0.5c-0.3-0.1-0.5-0.2-0.8-0.2c-0.3,0-0.6,0.1-0.8,0.2c-0.2,0.1-0.5,0.3-0.6,0.5
			c-0.2,0.2-0.3,0.5-0.4,0.7c-0.1,0.3-0.1,0.6-0.1,0.9c0,0.3,0,0.6,0.1,1c0.1,0.3,0.2,0.5,0.4,0.8c0.2,0.2,0.4,0.4,0.6,0.5
			C47.3,25.2,47.6,25.3,47.9,25.3L47.9,25.3z"/>
		<path class="st0" d="M55.3,20.4h0.5l3.6,3.7l0,0v-3.7h0.4v5.1h-0.2l-3.9-4.1l0,0v3.9h-0.4L55.3,20.4z"/>
		<path class="st0" d="M66.2,25.2c0.1,0,0.3,0,0.4-0.1c0.1,0,0.2-0.1,0.4-0.2c0.1-0.1,0.2-0.1,0.3-0.2c0.1-0.1,0.1-0.2,0.1-0.3
			c0-0.1,0-0.3-0.1-0.4c-0.1-0.1-0.2-0.2-0.3-0.3c-0.2-0.1-0.3-0.2-0.5-0.3l-0.6-0.3c-0.2-0.1-0.4-0.2-0.6-0.3
			c-0.2-0.1-0.3-0.2-0.5-0.3c-0.1-0.1-0.3-0.2-0.3-0.4c-0.1-0.2-0.1-0.3-0.1-0.5c0-0.2,0-0.4,0.1-0.5c0.1-0.2,0.2-0.3,0.3-0.4
			c0.2-0.1,0.4-0.2,0.6-0.3c0.2-0.1,0.5-0.1,0.8-0.1c0.4,0,0.9,0.1,1.2,0.3c0.3,0.2,0.6,0.5,0.6,0.9l-0.5,0.2
			c-0.1-0.1-0.1-0.3-0.2-0.4c-0.1-0.1-0.2-0.2-0.3-0.3c-0.1-0.1-0.3-0.2-0.4-0.2c-0.2-0.1-0.3-0.1-0.5-0.1c-0.2,0-0.3,0-0.5,0.1
			c-0.1,0-0.2,0.1-0.3,0.2c-0.1,0.1-0.1,0.2-0.2,0.2c0,0.1-0.1,0.2-0.1,0.3c0,0.1,0,0.3,0.1,0.4c0.1,0.1,0.2,0.2,0.4,0.3
			c0.2,0.1,0.3,0.2,0.5,0.3l0.6,0.3c0.2,0.1,0.4,0.2,0.6,0.3c0.2,0.1,0.3,0.2,0.5,0.3c0.1,0.1,0.3,0.2,0.4,0.4
			c0.1,0.1,0.1,0.3,0.1,0.5c0,0.2,0,0.4-0.1,0.6c-0.1,0.2-0.2,0.3-0.4,0.4c-0.2,0.1-0.4,0.2-0.6,0.3c-0.3,0.1-0.6,0.1-0.9,0.1
			c-0.2,0-0.5,0-0.7-0.1c-0.2-0.1-0.4-0.1-0.6-0.2c-0.2-0.1-0.3-0.2-0.4-0.4c-0.1-0.2-0.2-0.3-0.3-0.5l0.5-0.2
			c0.1,0.3,0.3,0.6,0.6,0.8C65.6,25.2,65.9,25.2,66.2,25.2z"/>
		<path class="st0" d="M72.7,20.4h0.9v3.2c0,0.2,0,0.4,0.1,0.6c0.1,0.2,0.2,0.4,0.3,0.5c0.2,0.1,0.3,0.3,0.5,0.3
			c0.5,0.2,1,0.2,1.4,0c0.2-0.1,0.4-0.2,0.5-0.3c0.1-0.1,0.3-0.3,0.3-0.5c0.1-0.2,0.1-0.4,0.1-0.6v-3.2h0.4v3.2c0,0.2,0,0.5-0.1,0.7
			c-0.1,0.2-0.2,0.4-0.4,0.6c-0.2,0.2-0.5,0.3-0.7,0.4c-0.4,0.1-0.7,0.2-1.1,0.1c-0.3,0-0.7,0-1-0.1c-0.3-0.1-0.5-0.2-0.7-0.4
			c-0.2-0.2-0.3-0.4-0.4-0.6c-0.1-0.2-0.1-0.5-0.1-0.7L72.7,20.4z"/>
		<path class="st0" d="M82.5,20.4h0.9v4.7h2.7v0.3h-3.7V20.4z"/>
		<path class="st0" d="M94,20.4v0.3h-2v4.7h-0.9v-4.7h-2v-0.3L94,20.4z"/>
		<path class="st0" d="M98.7,20.4h0.9v5h-0.9L98.7,20.4z"/>
		<path class="st0" d="M105.1,20.4h0.5l3.6,3.7l0,0v-3.7h0.4v5.1h-0.2l-3.8-4.1l0,0v3.9h-0.4L105.1,20.4z"/>
		<path class="st0" d="M117,20.7c-0.3,0-0.6,0-0.9,0.2c-0.3,0.1-0.5,0.3-0.7,0.5c-0.2,0.2-0.4,0.5-0.5,0.7c-0.1,0.3-0.2,0.6-0.2,0.9
			c0,0.3,0.1,0.6,0.2,1c0.1,0.3,0.3,0.5,0.5,0.7c0.2,0.2,0.5,0.4,0.7,0.5c0.3,0.1,0.6,0.2,0.9,0.2c0.2,0,0.4,0,0.6-0.1
			c0.2-0.1,0.4-0.1,0.5-0.3v-1.8h-1v-0.3h2v2.2c-0.2,0.1-0.3,0.2-0.5,0.2c-0.2,0.1-0.3,0.1-0.5,0.2c-0.2,0-0.4,0.1-0.6,0.1
			c-0.2,0-0.5,0-0.8,0c-0.4,0-0.9-0.1-1.3-0.2c-0.4-0.1-0.7-0.3-1-0.6c-0.3-0.2-0.5-0.5-0.6-0.8c-0.2-0.3-0.2-0.7-0.2-1
			c0-0.3,0.1-0.7,0.2-1c0.1-0.3,0.4-0.6,0.6-0.8c0.6-0.5,1.4-0.8,2.2-0.8c0.3,0,0.5,0,0.8,0.1c0.2,0.1,0.5,0.2,0.7,0.3
			c0.2,0.1,0.4,0.3,0.5,0.4c0.2,0.1,0.3,0.3,0.4,0.5l-0.4,0.2c-0.2-0.4-0.4-0.7-0.8-0.9C117.7,20.7,117.4,20.6,117,20.7z"/>
		
			<linearGradient id="SVGID_1_" gradientUnits="userSpaceOnUse" x1="11.6775" y1="15.5231" x2="7.0698" y2="28.1645" gradientTransform="matrix(1 0 0 -1 0 27.8898)">
			<stop  offset="0" style="stop-color:#EC6500"/>
			<stop  offset="0.16" style="stop-color:#ED6902"/>
			<stop  offset="0.32" style="stop-color:#EF7509"/>
			<stop  offset="0.49" style="stop-color:#F28915"/>
			<stop  offset="0.65" style="stop-color:#F7A525"/>
			<stop  offset="0.7" style="stop-color:#F9AF2A"/>
			<stop  offset="0.86" style="stop-color:#FBBB31"/>
			<stop  offset="0.99" style="stop-color:#FCC041"/>
		</linearGradient>
		<path class="st1" d="M2.8,1.3h8.5l1,1.3c0,0,3.1,3.5,1.7,6l-2.7,3.9L2.8,1.3z"/>
		
			<linearGradient id="SVGID_2_" gradientUnits="userSpaceOnUse" x1="-0.5103" y1="7.5976" x2="17.0588" y2="13.9864" gradientTransform="matrix(1 0 0 -1 0 27.8898)">
			<stop  offset="0" style="stop-color:#EC6500"/>
			<stop  offset="0.16" style="stop-color:#ED6902"/>
			<stop  offset="0.32" style="stop-color:#EF7509"/>
			<stop  offset="0.49" style="stop-color:#F28915"/>
			<stop  offset="0.65" style="stop-color:#F7A525"/>
			<stop  offset="0.7" style="stop-color:#F9AF2A"/>
			<stop  offset="0.86" style="stop-color:#FBBB31"/>
			<stop  offset="0.99" style="stop-color:#FCC041"/>
		</linearGradient>
		<path class="st2" d="M1.4,25.6h8.3c0,0,4.6-5.4,4.5-8l0.1-9.9c0-0.6,0-1.2-0.2-1.7c0,0,0.4,2.1-3.6,7.2L1.4,25.6z"/>
		
			<linearGradient id="SVGID_3_" gradientUnits="userSpaceOnUse" x1="21.1038" y1="2.1254" x2="23.329" y2="14.7139" gradientTransform="matrix(1 0 0 -1 0 27.8898)">
			<stop  offset="0" style="stop-color:#E4002C"/>
			<stop  offset="0.26" style="stop-color:#E93138"/>
			<stop  offset="0.52" style="stop-color:#ED5E43"/>
			<stop  offset="0.73" style="stop-color:#F07A4A"/>
			<stop  offset="0.85" style="stop-color:#F1844C"/>
			<stop  offset="0.99" style="stop-color:#F1844C"/>
		</linearGradient>
		<path class="st3" d="M28.4,25.6h-8.5l-2.5-3.4c0,0-3.1-3.3-1.7-6l2.7-3.9L28.4,25.6z"/>
		
			<linearGradient id="SVGID_4_" gradientUnits="userSpaceOnUse" x1="14.3735" y1="17.5521" x2="27.791" y2="19.199" gradientTransform="matrix(1 0 0 -1 0 27.8898)">
			<stop  offset="0" style="stop-color:#E4002C"/>
			<stop  offset="0.26" style="stop-color:#E93138"/>
			<stop  offset="0.52" style="stop-color:#ED5E43"/>
			<stop  offset="0.73" style="stop-color:#F07A4A"/>
			<stop  offset="0.85" style="stop-color:#F1844C"/>
			<stop  offset="0.99" style="stop-color:#F1844C"/>
		</linearGradient>
		<path class="st4" d="M26.9,1.3h-8.3c0,0-3.2,3.2-3.2,5.8L15.3,17c0,0.6,0,1.2,0.2,1.7c0,0-0.4-2.1,3.6-7.2L26.9,1.3z"/>
	</g>
</g>
</svg>
