<?xml version="1.0" encoding="utf-8"?>
<!-- Generator: Adobe Illustrator 24.3.0, SVG Export Plug-In . SVG Version: 6.00 Build 0)  -->
<svg version="1.1" id="Layer_1" xmlns="http://www.w3.org/2000/svg" xmlns:xlink="http://www.w3.org/1999/xlink" x="0px" y="0px"
	 viewBox="0 0 170 27" style="enable-background:new 0 0 170 27;" xml:space="preserve">
<style type="text/css">
	.st0{fill:#181716;}
	.st1{fill:url(#SVGID_1_);}
	.st2{fill:url(#SVGID_2_);}
	.st3{fill:url(#SVGID_3_);}
	.st4{fill:url(#SVGID_4_);}
</style>
<g id="Ebene_2">
	<g id="Ebene_2-2">
		<path class="st0" d="M43.7,9.6V17h-3.8V1.4h3.8v6.8H50V1.4h3.8V17H50V9.6H43.7z"/>
		<path class="st0" d="M70.9,1.4v1.3H63v5.2h6.5v1.3H63v6.2h7.8V17H59.2V1.4H70.9z"/>
		<path class="st0" d="M75.1,1.4H79v14h8V17H75.1V1.4z"/>
		<path class="st0" d="M89.3,1.4l5.2,10.8l4.8-10.8h2.5l-7,15.9h-1.8L85.4,1.4H89.3z"/>
		<path class="st0" d="M116.4,1.4v1.3h-7.8v5.2h6.5v1.3h-6.5v6.2h7.8V17h-11.7V1.4H116.4z"/>
		<path class="st0" d="M133.7,1.4v1.3h-5.4V17h-3.8V2.7h-5.4V1.4H133.7z"/>
		<path class="st0" d="M137.1,1.4h3.8V17h-3.8V1.4z"/>
		<path class="st0" d="M147.3,17h-2.7l6.6-7.7l-6-7.9h4.2l4,5.3l4.6-5.3h2.7l-6,7l6.5,8.7H157l-4.6-6L147.3,17z"/>
		<path class="st0" d="M40.6,23c0,0.3,0,0.6,0.2,0.9c0.1,0.3,0.2,0.5,0.4,0.7c0.2,0.2,0.4,0.3,0.7,0.4c0.3,0.1,0.5,0.2,0.8,0.2
			c0.2,0,0.3,0,0.5-0.1c0.2-0.1,0.3-0.2,0.5-0.3c0.1-0.1,0.3-0.2,0.4-0.4c0.1-0.1,0.2-0.3,0.3-0.4l0.3,0.2c-0.1,0.2-0.2,0.3-0.4,0.5
			c-0.1,0.2-0.3,0.3-0.5,0.4c-0.2,0.1-0.4,0.2-0.6,0.3c-0.3,0.1-0.5,0.1-0.8,0.1c-0.4,0-0.8-0.1-1.1-0.2c-0.3-0.1-0.6-0.3-0.9-0.6
			c-0.5-0.5-0.7-1.1-0.8-1.8c0-0.3,0.1-0.7,0.2-1c0.1-0.3,0.3-0.6,0.6-0.8c0.3-0.2,0.6-0.4,0.9-0.6c0.4-0.1,0.7-0.2,1.1-0.2
			c0.2,0,0.5,0,0.7,0.1c0.2,0.1,0.4,0.2,0.6,0.3c0.2,0.1,0.3,0.3,0.5,0.4c0.1,0.1,0.3,0.3,0.4,0.5l-0.4,0.2
			c-0.2-0.4-0.4-0.7-0.7-0.9c-0.3-0.2-0.6-0.3-0.9-0.3c-0.3,0-0.6,0-0.8,0.2c-0.2,0.1-0.5,0.3-0.7,0.4c-0.2,0.2-0.3,0.5-0.4,0.7
			C40.7,22.4,40.6,22.7,40.6,23z"/>
		<path class="st0" d="M51.2,25.6c-0.2,0-0.5,0-0.7-0.1c-0.2-0.1-0.5-0.2-0.7-0.3c-0.2-0.1-0.4-0.3-0.6-0.4
			c-0.2-0.2-0.3-0.3-0.4-0.5c-0.1-0.2-0.2-0.4-0.3-0.6c-0.1-0.2-0.1-0.5-0.1-0.7c0-0.2,0-0.5,0.1-0.7c0.1-0.2,0.2-0.4,0.3-0.6
			c0.1-0.2,0.3-0.4,0.4-0.5c0.2-0.2,0.4-0.3,0.6-0.4c0.2-0.1,0.4-0.2,0.7-0.3c0.2-0.1,0.5-0.1,0.7-0.1c0.4,0,0.7,0.1,1.1,0.2
			c0.3,0.1,0.6,0.3,0.9,0.6c0.2,0.2,0.4,0.5,0.6,0.8c0.1,0.3,0.2,0.6,0.2,1c0,0.2,0,0.5-0.1,0.7c-0.1,0.2-0.2,0.4-0.3,0.6
			c-0.1,0.2-0.3,0.4-0.4,0.5c-0.2,0.2-0.4,0.3-0.6,0.4c-0.2,0.1-0.4,0.2-0.7,0.3C51.7,25.5,51.4,25.6,51.2,25.6z M51.2,25.4
			c0.3,0,0.5-0.1,0.8-0.2c0.2-0.1,0.4-0.3,0.6-0.5c0.2-0.2,0.3-0.5,0.3-0.8c0.1-0.3,0.1-0.7,0.1-1c0-0.3,0-0.6-0.1-0.9
			c-0.1-0.3-0.2-0.5-0.3-0.7c-0.1-0.2-0.3-0.4-0.6-0.5c-0.2-0.1-0.5-0.2-0.8-0.2c-0.3,0-0.5,0.1-0.8,0.2c-0.2,0.1-0.4,0.3-0.6,0.5
			c-0.2,0.2-0.3,0.5-0.3,0.7c-0.1,0.3-0.1,0.6-0.1,0.9c0,0.3,0,0.6,0.1,1c0.1,0.3,0.2,0.5,0.3,0.8c0.1,0.2,0.3,0.4,0.6,0.5
			C50.7,25.3,50.9,25.3,51.2,25.4L51.2,25.4z"/>
		<path class="st0" d="M58,20.5h0.5l3.3,3.7l0,0v-3.7h0.4v5.1h-0.2l-3.6-4.1l0,0v3.9h-0.4L58,20.5z"/>
		<path class="st0" d="M68,25.3c0.1,0,0.2,0,0.4-0.1c0.1,0,0.2-0.1,0.3-0.2c0.1-0.1,0.2-0.1,0.2-0.2c0.1-0.1,0.1-0.2,0.1-0.3
			c0-0.1,0-0.3-0.1-0.4c-0.1-0.1-0.2-0.2-0.3-0.3c-0.1-0.1-0.3-0.2-0.4-0.3l-0.5-0.3c-0.2-0.1-0.3-0.2-0.5-0.3
			c-0.2-0.1-0.3-0.2-0.4-0.3c-0.1-0.1-0.2-0.2-0.3-0.4c-0.1-0.2-0.1-0.3-0.1-0.5c0-0.2,0-0.4,0.1-0.5c0.1-0.2,0.2-0.3,0.3-0.4
			c0.1-0.1,0.3-0.2,0.5-0.3c0.2-0.1,0.5-0.1,0.7-0.1c0.4,0,0.8,0.1,1.1,0.3c0.3,0.2,0.5,0.5,0.6,0.9l-0.4,0.2
			c-0.1-0.1-0.1-0.3-0.2-0.4c-0.1-0.1-0.2-0.2-0.3-0.3c-0.1-0.1-0.2-0.2-0.4-0.2c-0.2-0.1-0.3-0.1-0.5-0.1c-0.1,0-0.3,0-0.4,0.1
			c-0.1,0-0.2,0.1-0.3,0.2C67,21,67,21.1,66.9,21.2c0,0.1-0.1,0.2-0.1,0.3c0,0.1,0,0.3,0.1,0.4c0.1,0.1,0.2,0.2,0.3,0.3
			c0.1,0.1,0.3,0.2,0.4,0.3l0.5,0.3c0.2,0.1,0.3,0.2,0.5,0.3c0.2,0.1,0.3,0.2,0.5,0.3c0.1,0.1,0.2,0.2,0.3,0.4
			c0.1,0.1,0.1,0.3,0.1,0.5c0,0.2,0,0.4-0.1,0.6c-0.1,0.2-0.2,0.3-0.3,0.4c-0.2,0.1-0.4,0.2-0.6,0.3c-0.3,0.1-0.5,0.1-0.8,0.1
			c-0.2,0-0.4,0-0.6-0.1c-0.2-0.1-0.3-0.1-0.5-0.2c-0.1-0.1-0.3-0.2-0.4-0.4c-0.1-0.2-0.2-0.3-0.3-0.5l0.4-0.2
			c0.1,0.3,0.3,0.6,0.5,0.8C67.3,25.2,67.6,25.3,68,25.3z"/>
		<path class="st0" d="M73.8,20.5h0.8v3.2c0,0.2,0,0.4,0.1,0.6c0.1,0.2,0.2,0.4,0.3,0.5c0.1,0.1,0.3,0.3,0.5,0.3
			c0.4,0.2,0.9,0.2,1.3,0c0.2-0.1,0.3-0.2,0.5-0.3c0.1-0.1,0.2-0.3,0.3-0.5c0.1-0.2,0.1-0.4,0.1-0.6v-3.2h0.4v3.2
			c0,0.2,0,0.5-0.1,0.7c-0.1,0.2-0.2,0.4-0.4,0.6c-0.2,0.2-0.4,0.3-0.7,0.4c-0.3,0.1-0.7,0.2-1,0.1c-0.3,0-0.6,0-0.9-0.1
			c-0.3-0.1-0.5-0.2-0.7-0.4c-0.2-0.2-0.3-0.4-0.4-0.6c-0.1-0.2-0.1-0.5-0.1-0.7L73.8,20.5z"/>
		<path class="st0" d="M82.8,20.5h0.8v4.7h2.5v0.3h-3.3V20.5z"/>
		<path class="st0" d="M93.3,20.5v0.3h-1.8v4.7h-0.8v-4.7h-1.8v-0.3L93.3,20.5z"/>
		<path class="st0" d="M97.6,20.5h0.8v5h-0.8L97.6,20.5z"/>
		<path class="st0" d="M103.4,20.5h0.5l3.3,3.7l0,0v-3.7h0.4v5.1h-0.2l-3.5-4.1l0,0v3.9h-0.4L103.4,20.5z"/>
		<path class="st0" d="M114.3,20.7c-0.3,0-0.6,0-0.8,0.2c-0.3,0.1-0.5,0.3-0.7,0.5c-0.2,0.2-0.3,0.5-0.4,0.7
			c-0.1,0.3-0.2,0.6-0.2,0.9c0,0.3,0,0.6,0.2,1c0.1,0.3,0.3,0.5,0.5,0.7c0.2,0.2,0.4,0.4,0.7,0.5c0.3,0.1,0.6,0.2,0.8,0.2
			c0.2,0,0.4,0,0.6-0.1c0.2-0.1,0.3-0.1,0.5-0.3v-1.7h-0.9v-0.3h1.8v2.2c-0.1,0.1-0.3,0.2-0.4,0.2c-0.2,0.1-0.3,0.1-0.5,0.2
			c-0.2,0-0.4,0.1-0.6,0.1c-0.2,0-0.4,0-0.7,0c-0.4,0-0.8-0.1-1.1-0.2c-0.3-0.1-0.6-0.3-0.9-0.6c-0.2-0.2-0.5-0.5-0.6-0.8
			c-0.1-0.3-0.2-0.7-0.2-1c0-0.3,0.1-0.7,0.2-1c0.1-0.3,0.3-0.6,0.6-0.8c0.5-0.5,1.3-0.8,2-0.8c0.2,0,0.5,0,0.7,0.1
			c0.2,0.1,0.4,0.2,0.6,0.3c0.2,0.1,0.3,0.3,0.5,0.4c0.1,0.1,0.3,0.3,0.4,0.5l-0.4,0.2c-0.2-0.4-0.4-0.7-0.7-0.9
			C115,20.8,114.6,20.7,114.3,20.7z"/>
		
			<linearGradient id="SVGID_1_" gradientUnits="userSpaceOnUse" x1="18.3728" y1="15.5203" x2="13.8604" y2="27.9002" gradientTransform="matrix(1 0 0 -1 0 27.8898)">
			<stop  offset="0" style="stop-color:#EC6500"/>
			<stop  offset="0.16" style="stop-color:#ED6902"/>
			<stop  offset="0.32" style="stop-color:#EF7509"/>
			<stop  offset="0.49" style="stop-color:#F28915"/>
			<stop  offset="0.65" style="stop-color:#F7A525"/>
			<stop  offset="0.7" style="stop-color:#F9AF2A"/>
			<stop  offset="0.86" style="stop-color:#FBBB31"/>
			<stop  offset="0.99" style="stop-color:#FCC041"/>
		</linearGradient>
		<path class="st1" d="M10,1.4h7.8l0.9,1.3c0,0,2.9,3.5,1.6,5.9l-2.4,3.9L10,1.4z"/>
		
			<linearGradient id="SVGID_2_" gradientUnits="userSpaceOnUse" x1="6.729" y1="7.8204" x2="23.3049" y2="13.848" gradientTransform="matrix(1 0 0 -1 0 27.8898)">
			<stop  offset="0" style="stop-color:#EC6500"/>
			<stop  offset="0.16" style="stop-color:#ED6902"/>
			<stop  offset="0.32" style="stop-color:#EF7509"/>
			<stop  offset="0.49" style="stop-color:#F28915"/>
			<stop  offset="0.65" style="stop-color:#F7A525"/>
			<stop  offset="0.7" style="stop-color:#F9AF2A"/>
			<stop  offset="0.86" style="stop-color:#FBBB31"/>
			<stop  offset="0.99" style="stop-color:#FCC041"/>
		</linearGradient>
		<path class="st2" d="M8.7,25.6h7.6c0,0,4.2-5.3,4.2-7.9l0.1-9.9c0-0.6,0-1.2-0.2-1.7c0,0,0.4,2.1-3.3,7.2L8.7,25.6z"/>
		
			<linearGradient id="SVGID_3_" gradientUnits="userSpaceOnUse" x1="26.6739" y1="2.1063" x2="28.8974" y2="14.6852" gradientTransform="matrix(1 0 0 -1 0 27.8898)">
			<stop  offset="0" style="stop-color:#E4002C"/>
			<stop  offset="0.26" style="stop-color:#E93138"/>
			<stop  offset="0.52" style="stop-color:#ED5E43"/>
			<stop  offset="0.73" style="stop-color:#F07A4A"/>
			<stop  offset="0.85" style="stop-color:#F1844C"/>
			<stop  offset="0.99" style="stop-color:#F1844C"/>
		</linearGradient>
		<path class="st3" d="M33.4,25.6h-7.8l-2.3-3.4c0,0-2.8-3.3-1.5-5.9l2.4-3.9L33.4,25.6z"/>
		
			<linearGradient id="SVGID_4_" gradientUnits="userSpaceOnUse" x1="20.5059" y1="17.4833" x2="32.9311" y2="19.0084" gradientTransform="matrix(1 0 0 -1 0 27.8898)">
			<stop  offset="0" style="stop-color:#E4002C"/>
			<stop  offset="0.26" style="stop-color:#E93138"/>
			<stop  offset="0.52" style="stop-color:#ED5E43"/>
			<stop  offset="0.73" style="stop-color:#F07A4A"/>
			<stop  offset="0.85" style="stop-color:#F1844C"/>
			<stop  offset="0.99" style="stop-color:#F1844C"/>
		</linearGradient>
		<path class="st4" d="M32,1.4h-7.5c0,0-2.9,3.2-2.9,5.8l-0.1,9.9c0,0.6,0,1.2,0.2,1.7c0,0-0.4-2.1,3.3-7.2L32,1.4z"/>
	</g>
</g>
</svg>
