<svg xmlns="http://www.w3.org/2000/svg" xmlns:xlink="http://www.w3.org/1999/xlink" viewBox="0 0 170 26.98"><defs><style>.cls-1{fill:#181716;}.cls-2{fill:url(#Unbenannter_Verlauf_17);}.cls-3{fill:url(#Unbenannter_Verlauf_17-2);}.cls-4{fill:url(#Unbenannter_Verlauf_31);}.cls-5{fill:url(#Unbenannter_Verlauf_31-2);}</style><linearGradient id="Unbenannter_Verlauf_17" x1="10.74" y1="12.24" x2="5.71" y2="-1.56" gradientUnits="userSpaceOnUse"><stop offset="0" stop-color="#ec6500"/><stop offset="0.16" stop-color="#ed6902"/><stop offset="0.32" stop-color="#ef7509"/><stop offset="0.49" stop-color="#f28915"/><stop offset="0.65" stop-color="#f7a525"/><stop offset="0.7" stop-color="#f9af2a"/><stop offset="0.86" stop-color="#fbbb31"/><stop offset="0.99" stop-color="#fcc041"/></linearGradient><linearGradient id="Unbenannter_Verlauf_17-2" x1="-2.24" y1="20.81" x2="16.24" y2="14.09" xlink:href="#Unbenannter_Verlauf_17"/><linearGradient id="Unbenannter_Verlauf_31" x1="19.98" y1="27.19" x2="22.46" y2="13.16" gradientUnits="userSpaceOnUse"><stop offset="0" stop-color="#e4002c"/><stop offset="0.26" stop-color="#e93138"/><stop offset="0.52" stop-color="#ed5e43"/><stop offset="0.73" stop-color="#f07a4a"/><stop offset="0.85" stop-color="#f1844c"/><stop offset="0.99" stop-color="#f1844c"/></linearGradient><linearGradient id="Unbenannter_Verlauf_31-2" x1="13.11" y1="10.05" x2="26.96" y2="8.35" xlink:href="#Unbenannter_Verlauf_31"/></defs><title>Element 4</title><g id="Ebene_2" data-name="Ebene 2"><g id="Ebene_2-2" data-name="Ebene 2"><path class="cls-1" d="M39,9.12v8.29H34.71V0H39V7.63h7V0h4.25V17.41H46V9.12Z"/><path class="cls-1" d="M69.27,0V1.47H60.53V7.22h7.26v1.5H60.53v6.91h8.74v1.78h-13V0Z"/><path class="cls-1" d="M74,0h4.26V15.63h8.9v1.78H74Z"/><path class="cls-1" d="M89.84,0l5.75,12,5.34-12h2.75L95.84,17.69h-2L85.42,0Z"/><path class="cls-1" d="M120,0V1.47h-8.73V7.22h7.25v1.5h-7.25v6.91H120v1.78H107V0Z"/><path class="cls-1" d="M139.25,0V1.47h-6V17.41H129V1.47h-6V0Z"/><path class="cls-1" d="M143.07,0h4.28V17.41h-4.28Z"/><path class="cls-1" d="M154.44,17.41h-3l7.4-8.6L152.18,0h4.72l4.42,5.87L166.42,0h3l-6.67,7.76L170,17.41h-4.71l-5.08-6.72Z"/><path class="cls-1" d="M35.5,24.08a2.89,2.89,0,0,0,.18,1.05,2.06,2.06,0,0,0,.48.78,1.92,1.92,0,0,0,.73.49,2.27,2.27,0,0,0,.91.18,1.38,1.38,0,0,0,.56-.12,2.16,2.16,0,0,0,.51-.29,3.33,3.33,0,0,0,.42-.42,2.59,2.59,0,0,0,.3-.46l.39.25a3,3,0,0,1-.41.54,2.43,2.43,0,0,1-.54.46,2.74,2.74,0,0,1-.69.32,3.32,3.32,0,0,1-.86.11,3.18,3.18,0,0,1-1.26-.23,2.93,2.93,0,0,1-1-.62,2.89,2.89,0,0,1-.84-2A2.87,2.87,0,0,1,34.63,23a3,3,0,0,1,.64-.93,3,3,0,0,1,1-.64,3.26,3.26,0,0,1,1.27-.23,2.66,2.66,0,0,1,.82.12,3,3,0,0,1,.68.31,3.05,3.05,0,0,1,.55.46,3,3,0,0,1,.41.54l-.41.27a2.72,2.72,0,0,0-.78-1,1.6,1.6,0,0,0-1-.31,2.25,2.25,0,0,0-.9.17,2,2,0,0,0-.73.5,2.39,2.39,0,0,0-.49.8A2.89,2.89,0,0,0,35.5,24.08Z"/><path class="cls-1" d="M47.31,27a3.12,3.12,0,0,1-.82-.1,3,3,0,0,1-.74-.3,3.12,3.12,0,0,1-.62-.46,2.71,2.71,0,0,1-.47-.6,3.39,3.39,0,0,1-.31-.7,2.88,2.88,0,0,1-.1-.78,2.8,2.8,0,0,1,.1-.77,3.22,3.22,0,0,1,.31-.68,2.6,2.6,0,0,1,.47-.58,2.73,2.73,0,0,1,.62-.45,3,3,0,0,1,.74-.29,3.12,3.12,0,0,1,.82-.1,3.21,3.21,0,0,1,1.21.22,3,3,0,0,1,1,.62,3,3,0,0,1,.65.91A2.65,2.65,0,0,1,50.38,24a2.88,2.88,0,0,1-.11.78,2.93,2.93,0,0,1-.31.7,2.71,2.71,0,0,1-.47.6,2.85,2.85,0,0,1-.62.46,3,3,0,0,1-.73.3A3.2,3.2,0,0,1,47.31,27Zm0-.27a1.74,1.74,0,0,0,.84-.2,1.84,1.84,0,0,0,.62-.56,2.48,2.48,0,0,0,.38-.84A4,4,0,0,0,49.28,24,3.87,3.87,0,0,0,49.15,23a2.3,2.3,0,0,0-.38-.82,1.79,1.79,0,0,0-.62-.54,1.74,1.74,0,0,0-.84-.19,1.78,1.78,0,0,0-.85.19,1.7,1.7,0,0,0-.62.54,2.48,2.48,0,0,0-.38.82A4.32,4.32,0,0,0,45.34,24a4.49,4.49,0,0,0,.12,1.07,2.69,2.69,0,0,0,.38.84,1.75,1.75,0,0,0,.62.56A1.78,1.78,0,0,0,47.31,26.7Z"/><path class="cls-1" d="M54.88,21.28h.52l3.65,4.07h0V21.28h.4V27h-.21l-4-4.52h0v4.39h-.42Z"/><path class="cls-1" d="M66,26.62a1.39,1.39,0,0,0,.4-.06,1,1,0,0,0,.36-.17.84.84,0,0,0,.26-.27.75.75,0,0,0,.09-.37.77.77,0,0,0-.13-.45,1.48,1.48,0,0,0-.34-.37,3.41,3.41,0,0,0-.49-.31l-.57-.3c-.19-.1-.38-.2-.56-.31a2.21,2.21,0,0,1-.49-.36,1.45,1.45,0,0,1-.34-.44,1.13,1.13,0,0,1-.13-.56,1.45,1.45,0,0,1,.12-.59,1.35,1.35,0,0,1,.35-.48,1.56,1.56,0,0,1,.57-.31,2.27,2.27,0,0,1,.77-.11,2.11,2.11,0,0,1,1.25.33,1.79,1.79,0,0,1,.66,1l-.48.22a2.9,2.9,0,0,0-.21-.47,1.55,1.55,0,0,0-.31-.36,1.22,1.22,0,0,0-.42-.23,1.44,1.44,0,0,0-.53-.08,1.31,1.31,0,0,0-.46.07,1.06,1.06,0,0,0-.33.19.86.86,0,0,0-.2.27.81.81,0,0,0-.06.31.64.64,0,0,0,.13.4,1.69,1.69,0,0,0,.36.34,4.75,4.75,0,0,0,.5.31l.58.31c.2.1.39.21.57.32a4.19,4.19,0,0,1,.51.37,1.83,1.83,0,0,1,.36.44,1,1,0,0,1,.13.53,1.47,1.47,0,0,1-.13.62,1.39,1.39,0,0,1-.37.5,1.91,1.91,0,0,1-.63.35,2.86,2.86,0,0,1-.87.12,3.08,3.08,0,0,1-.71-.08,1.92,1.92,0,0,1-.56-.26,1.77,1.77,0,0,1-.41-.41,2.19,2.19,0,0,1-.28-.55l.5-.21a1.65,1.65,0,0,0,.58.85A1.51,1.51,0,0,0,66,26.62Z"/><path class="cls-1" d="M72.57,21.28h.93v3.61a1.85,1.85,0,0,0,.12.67,1.67,1.67,0,0,0,.35.55,1.62,1.62,0,0,0,.55.37,1.9,1.9,0,0,0,1.43,0,1.49,1.49,0,0,0,.54-.37,1.67,1.67,0,0,0,.35-.55,1.85,1.85,0,0,0,.12-.67V21.28h.41v3.61a2.36,2.36,0,0,1-.14.8,1.64,1.64,0,0,1-.43.67,2.14,2.14,0,0,1-.75.45,3.34,3.34,0,0,1-1.11.16,2.88,2.88,0,0,1-1-.16,2,2,0,0,1-.75-.46,1.85,1.85,0,0,1-.45-.66,2.25,2.25,0,0,1-.15-.82Z"/><path class="cls-1" d="M82.6,21.28h.93v5.21h2.79v.35H82.6Z"/><path class="cls-1" d="M94.3,21.28v.36h-2v5.2h-.93v-5.2h-2v-.36Z"/><path class="cls-1" d="M99.08,21.28H100v5.56h-.94Z"/><path class="cls-1" d="M105.53,21.28h.52l3.64,4.07h0V21.28h.41V27h-.22L106,22.45h0v4.39h-.42Z"/><path class="cls-1" d="M117.67,21.56a2.33,2.33,0,0,0-.93.17,2,2,0,0,0-.73.52,2.22,2.22,0,0,0-.48.8,3,3,0,0,0-.17,1.05,2.91,2.91,0,0,0,.18,1.06,2.46,2.46,0,0,0,.52.8,2.1,2.1,0,0,0,.76.52,2.42,2.42,0,0,0,.94.18,2,2,0,0,0,.66-.11,1.68,1.68,0,0,0,.53-.28V24.32h-1V24h2v2.44a4.44,4.44,0,0,1-.49.24,5.52,5.52,0,0,1-.53.17,5.93,5.93,0,0,1-.63.1q-.35,0-.78,0a3.55,3.55,0,0,1-1.28-.22,3.23,3.23,0,0,1-1-.62,2.84,2.84,0,0,1-.66-.91,2.65,2.65,0,0,1-.24-1.12,2.88,2.88,0,0,1,.23-1.12,3,3,0,0,1,.64-.94,3.21,3.21,0,0,1,2.25-.88,2.66,2.66,0,0,1,.82.12,2.82,2.82,0,0,1,.68.31,2.74,2.74,0,0,1,.55.46,3,3,0,0,1,.41.54l-.4.27a2.72,2.72,0,0,0-.78-1A1.64,1.64,0,0,0,117.67,21.56Z"/><path class="cls-2" d="M1.42,0h8.64l1,1.5s3.18,3.92,1.73,6.62l-2.72,4.36Z"/><path class="cls-3" d="M0,27H8.42s4.65-5.95,4.63-8.85l.14-11A7.41,7.41,0,0,0,13,5.22s.44,2.37-3.65,8Z"/><path class="cls-4" d="M27.46,27H18.81l-2.53-3.76s-3.17-3.7-1.72-6.62l2.72-4.35Z"/><path class="cls-5" d="M25.93,0H17.52s-3.25,3.59-3.23,6.5l-.14,11a6,6,0,0,0,.18,1.91s-.44-2.37,3.66-8Z"/></g></g></svg>