<?xml version="1.0" encoding="utf-8"?>
<!-- Generator: Adobe Illustrator 24.3.0, SVG Export Plug-In . SVG Version: 6.00 Build 0)  -->
<svg version="1.1" id="Layer_1" xmlns="http://www.w3.org/2000/svg" xmlns:xlink="http://www.w3.org/1999/xlink" x="0px" y="0px"
	 viewBox="0 0 170 28.6" enable-background="new 0 0 170 28.6" xml:space="preserve">
<g id="Ebene_2">
	<g id="Ebene_2-2">
		<path fill="#181716" d="M39,10.1v8.3h-4.3V0.9H39v7.6h7V0.9h4.2v17.4H46v-8.3H39z"/>
		<path fill="#181716" d="M69.3,0.9v1.5h-8.7v5.8h7.3v1.5h-7.3v6.9h8.7v1.8h-13V0.9H69.3z"/>
		<path fill="#181716" d="M74,0.9h4.3v15.6h8.9v1.8H74V0.9z"/>
		<path fill="#181716" d="M89.8,0.9l5.8,12l5.3-12h2.8l-7.8,17.7h-2L85.4,0.9H89.8z"/>
		<path fill="#181716" d="M120,0.9v1.5h-8.7v5.8h7.2v1.5h-7.2v6.9h8.7v1.8h-13V0.9H120z"/>
		<path fill="#181716" d="M139.2,0.9v1.5h-6v15.9H129V2.4h-6V0.9H139.2z"/>
		<path fill="#181716" d="M143.1,0.9h4.3v17.4h-4.3V0.9z"/>
		<path fill="#181716" d="M154.4,18.3h-3l7.4-8.6l-6.7-8.8h4.7l4.4,5.9l5.1-5.9h3l-6.7,7.8l7.2,9.7h-4.7l-5.1-6.7L154.4,18.3z"/>
		<path fill="#181716" d="M35.5,25c0,0.4,0.1,0.7,0.2,1c0.1,0.3,0.3,0.6,0.5,0.8c0.2,0.2,0.5,0.4,0.7,0.5c0.3,0.1,0.6,0.2,0.9,0.2
			c0.2,0,0.4,0,0.6-0.1c0.2-0.1,0.4-0.2,0.5-0.3c0.2-0.1,0.3-0.3,0.4-0.4c0.1-0.1,0.2-0.3,0.3-0.5l0.4,0.2c-0.1,0.2-0.3,0.4-0.4,0.5
			c-0.2,0.2-0.3,0.3-0.5,0.5c-0.2,0.1-0.4,0.2-0.7,0.3c-0.3,0.1-0.6,0.1-0.9,0.1c-0.4,0-0.9-0.1-1.3-0.2c-0.4-0.1-0.7-0.3-1-0.6
			c-0.5-0.5-0.8-1.2-0.8-2c0-0.4,0.1-0.8,0.3-1.1c0.2-0.3,0.4-0.7,0.6-0.9c0.3-0.3,0.6-0.5,1-0.6c0.4-0.2,0.8-0.2,1.3-0.2
			c0.3,0,0.6,0,0.8,0.1c0.2,0.1,0.5,0.2,0.7,0.3c0.2,0.1,0.4,0.3,0.5,0.5c0.2,0.2,0.3,0.3,0.4,0.5l-0.4,0.3c-0.2-0.4-0.4-0.7-0.8-1
			c-0.3-0.2-0.6-0.3-1-0.3c-0.3,0-0.6,0.1-0.9,0.2c-0.3,0.1-0.5,0.3-0.7,0.5c-0.2,0.2-0.4,0.5-0.5,0.8C35.6,24.3,35.5,24.7,35.5,25z
			"/>
		<path fill="#181716" d="M47.3,27.9c-0.3,0-0.6,0-0.8-0.1c-0.3-0.1-0.5-0.2-0.7-0.3c-0.2-0.1-0.4-0.3-0.6-0.5
			c-0.2-0.2-0.3-0.4-0.5-0.6c-0.1-0.2-0.2-0.5-0.3-0.7c-0.1-0.3-0.1-0.5-0.1-0.8c0-0.3,0-0.5,0.1-0.8c0.1-0.2,0.2-0.5,0.3-0.7
			c0.1-0.2,0.3-0.4,0.5-0.6c0.2-0.2,0.4-0.3,0.6-0.5c0.2-0.1,0.5-0.2,0.7-0.3c0.3-0.1,0.5-0.1,0.8-0.1c0.4,0,0.8,0.1,1.2,0.2
			c0.4,0.1,0.7,0.3,1,0.6c0.3,0.3,0.5,0.6,0.7,0.9c0.1,0.3,0.2,0.7,0.2,1.1c0,0.3,0,0.5-0.1,0.8c-0.1,0.2-0.2,0.5-0.3,0.7
			c-0.1,0.2-0.3,0.4-0.5,0.6c-0.2,0.2-0.4,0.3-0.6,0.5c-0.2,0.1-0.5,0.2-0.7,0.3C47.9,27.9,47.6,27.9,47.3,27.9z M47.3,27.7
			c0.3,0,0.6-0.1,0.8-0.2c0.2-0.1,0.5-0.3,0.6-0.6c0.2-0.3,0.3-0.5,0.4-0.8c0.1-0.4,0.1-0.7,0.1-1.1c0-0.3,0-0.7-0.1-1
			c-0.1-0.3-0.2-0.6-0.4-0.8c-0.2-0.2-0.4-0.4-0.6-0.5c-0.3-0.1-0.5-0.2-0.8-0.2c-0.3,0-0.6,0.1-0.8,0.2c-0.2,0.1-0.5,0.3-0.6,0.5
			c-0.2,0.2-0.3,0.5-0.4,0.8c-0.1,0.3-0.1,0.7-0.1,1c0,0.4,0,0.7,0.1,1.1c0.1,0.3,0.2,0.6,0.4,0.8c0.2,0.2,0.4,0.4,0.6,0.6
			C46.7,27.5,47,27.6,47.3,27.7L47.3,27.7z"/>
		<path fill="#181716" d="M54.9,22.2h0.5l3.7,4.1l0,0v-4.1h0.4v5.7h-0.2l-4-4.5l0,0v4.4h-0.4L54.9,22.2z"/>
		<path fill="#181716" d="M66,27.6c0.1,0,0.3,0,0.4-0.1c0.1,0,0.3-0.1,0.4-0.2c0.1-0.1,0.2-0.2,0.3-0.3c0.1-0.1,0.1-0.2,0.1-0.4
			c0-0.2,0-0.3-0.1-0.5c-0.1-0.1-0.2-0.3-0.3-0.4c-0.2-0.1-0.3-0.2-0.5-0.3l-0.6-0.3c-0.2-0.1-0.4-0.2-0.6-0.3
			c-0.2-0.1-0.3-0.2-0.5-0.4c-0.1-0.1-0.3-0.3-0.3-0.4c-0.1-0.2-0.1-0.4-0.1-0.6c0-0.2,0-0.4,0.1-0.6c0.1-0.2,0.2-0.3,0.3-0.5
			c0.2-0.1,0.4-0.2,0.6-0.3c0.2-0.1,0.5-0.1,0.8-0.1c0.4,0,0.9,0.1,1.2,0.3c0.3,0.2,0.6,0.6,0.7,1l-0.5,0.2
			c-0.1-0.2-0.1-0.3-0.2-0.5c-0.1-0.1-0.2-0.3-0.3-0.4c-0.1-0.1-0.3-0.2-0.4-0.2c-0.2-0.1-0.3-0.1-0.5-0.1c-0.2,0-0.3,0-0.5,0.1
			c-0.1,0-0.2,0.1-0.3,0.2c-0.1,0.1-0.2,0.2-0.2,0.3c0,0.1-0.1,0.2-0.1,0.3c0,0.1,0,0.3,0.1,0.4c0.1,0.1,0.2,0.2,0.4,0.3
			c0.2,0.1,0.3,0.2,0.5,0.3l0.6,0.3c0.2,0.1,0.4,0.2,0.6,0.3c0.2,0.1,0.3,0.2,0.5,0.4c0.1,0.1,0.3,0.3,0.4,0.4
			c0.1,0.2,0.1,0.3,0.1,0.5c0,0.2,0,0.4-0.1,0.6c-0.1,0.2-0.2,0.4-0.4,0.5c-0.2,0.2-0.4,0.3-0.6,0.4c-0.3,0.1-0.6,0.1-0.9,0.1
			c-0.2,0-0.5,0-0.7-0.1c-0.2-0.1-0.4-0.1-0.6-0.3c-0.2-0.1-0.3-0.3-0.4-0.4C64.1,27,64,26.8,64,26.7l0.5-0.2
			c0.1,0.3,0.3,0.6,0.6,0.9C65.3,27.5,65.7,27.6,66,27.6z"/>
		<path fill="#181716" d="M72.6,22.2h0.9v3.6c0,0.2,0,0.5,0.1,0.7c0.1,0.2,0.2,0.4,0.3,0.5c0.2,0.2,0.3,0.3,0.6,0.4
			c0.5,0.2,1,0.2,1.4,0c0.2-0.1,0.4-0.2,0.5-0.4c0.2-0.2,0.3-0.3,0.3-0.5c0.1-0.2,0.1-0.4,0.1-0.7v-3.6h0.4v3.6c0,0.3,0,0.5-0.1,0.8
			c-0.1,0.3-0.2,0.5-0.4,0.7c-0.2,0.2-0.5,0.4-0.8,0.5c-0.4,0.1-0.7,0.2-1.1,0.2c-0.3,0-0.7,0-1-0.2c-0.3-0.1-0.5-0.3-0.8-0.5
			c-0.2-0.2-0.3-0.4-0.4-0.7c-0.1-0.3-0.2-0.5-0.2-0.8L72.6,22.2z"/>
		<path fill="#181716" d="M82.6,22.2h0.9v5.2h2.8v0.4h-3.7V22.2z"/>
		<path fill="#181716" d="M94.3,22.2v0.4h-2v5.2h-0.9v-5.2h-2v-0.4L94.3,22.2z"/>
		<path fill="#181716" d="M99.1,22.2h0.9v5.6h-0.9L99.1,22.2z"/>
		<path fill="#181716" d="M105.5,22.2h0.5l3.6,4.1l0,0v-4.1h0.4v5.7h-0.2l-3.9-4.5l0,0v4.4h-0.4L105.5,22.2z"/>
		<path fill="#181716" d="M117.7,22.5c-0.3,0-0.6,0.1-0.9,0.2c-0.3,0.1-0.5,0.3-0.7,0.5c-0.2,0.2-0.4,0.5-0.5,0.8
			c-0.1,0.3-0.2,0.7-0.2,1c0,0.4,0.1,0.7,0.2,1.1c0.1,0.3,0.3,0.6,0.5,0.8c0.2,0.2,0.5,0.4,0.8,0.5c0.3,0.1,0.6,0.2,0.9,0.2
			c0.2,0,0.4,0,0.7-0.1c0.2-0.1,0.4-0.2,0.5-0.3v-1.9h-1v-0.3h2v2.4c-0.2,0.1-0.3,0.2-0.5,0.2c-0.2,0.1-0.4,0.1-0.5,0.2
			c-0.2,0-0.4,0.1-0.6,0.1c-0.2,0-0.5,0-0.8,0c-0.4,0-0.9-0.1-1.3-0.2c-0.4-0.1-0.7-0.4-1-0.6c-0.3-0.3-0.5-0.6-0.7-0.9
			c-0.2-0.4-0.2-0.7-0.2-1.1c0-0.4,0.1-0.8,0.2-1.1c0.2-0.4,0.4-0.7,0.6-0.9c0.6-0.6,1.4-0.9,2.2-0.9c0.3,0,0.6,0,0.8,0.1
			c0.2,0.1,0.5,0.2,0.7,0.3c0.2,0.1,0.4,0.3,0.6,0.5c0.2,0.2,0.3,0.3,0.4,0.5l-0.4,0.3c-0.2-0.4-0.4-0.7-0.8-1
			C118.4,22.6,118,22.5,117.7,22.5z"/>
		
			<linearGradient id="SVGID_1_" gradientUnits="userSpaceOnUse" x1="10.7323" y1="16.5837" x2="5.7025" y2="30.3832" gradientTransform="matrix(1 0 0 -1 0 29.7548)">
			<stop  offset="0" style="stop-color:#EC6500"/>
			<stop  offset="0.16" style="stop-color:#ED6902"/>
			<stop  offset="0.32" style="stop-color:#EF7509"/>
			<stop  offset="0.49" style="stop-color:#F28915"/>
			<stop  offset="0.65" style="stop-color:#F7A525"/>
			<stop  offset="0.7" style="stop-color:#F9AF2A"/>
			<stop  offset="0.86" style="stop-color:#FBBB31"/>
			<stop  offset="0.99" style="stop-color:#FCC041"/>
		</linearGradient>
		<path fill="url(#SVGID_1_)" d="M1.4,0.9h8.6l1,1.5c0,0,3.2,3.9,1.7,6.6l-2.7,4.4L1.4,0.9z"/>
		
			<linearGradient id="SVGID_2_" gradientUnits="userSpaceOnUse" x1="-2.2467" y1="8.0008" x2="16.2301" y2="14.7196" gradientTransform="matrix(1 0 0 -1 0 29.7548)">
			<stop  offset="0" style="stop-color:#EC6500"/>
			<stop  offset="0.16" style="stop-color:#ED6902"/>
			<stop  offset="0.32" style="stop-color:#EF7509"/>
			<stop  offset="0.49" style="stop-color:#F28915"/>
			<stop  offset="0.65" style="stop-color:#F7A525"/>
			<stop  offset="0.7" style="stop-color:#F9AF2A"/>
			<stop  offset="0.86" style="stop-color:#FBBB31"/>
			<stop  offset="0.99" style="stop-color:#FCC041"/>
		</linearGradient>
		<path fill="url(#SVGID_2_)" d="M0,27.9h8.4c0,0,4.6-6,4.6-8.9l0.1-11c0-0.6,0-1.3-0.2-1.9c0,0,0.4,2.4-3.6,8L0,27.9z"/>
		
			<linearGradient id="SVGID_3_" gradientUnits="userSpaceOnUse" x1="19.9854" y1="1.6313" x2="22.4639" y2="15.6528" gradientTransform="matrix(1 0 0 -1 0 29.7548)">
			<stop  offset="0" style="stop-color:#E4002C"/>
			<stop  offset="0.26" style="stop-color:#E93138"/>
			<stop  offset="0.52" style="stop-color:#ED5E43"/>
			<stop  offset="0.73" style="stop-color:#F07A4A"/>
			<stop  offset="0.85" style="stop-color:#F1844C"/>
			<stop  offset="0.99" style="stop-color:#F1844C"/>
		</linearGradient>
		<path fill="url(#SVGID_3_)" d="M27.5,27.9h-8.6l-2.5-3.8c0,0-3.2-3.7-1.7-6.6l2.7-4.4L27.5,27.9z"/>
		
			<linearGradient id="SVGID_4_" gradientUnits="userSpaceOnUse" x1="13.1101" y1="18.7718" x2="26.9601" y2="20.4718" gradientTransform="matrix(1 0 0 -1 0 29.7548)">
			<stop  offset="0" style="stop-color:#E4002C"/>
			<stop  offset="0.26" style="stop-color:#E93138"/>
			<stop  offset="0.52" style="stop-color:#ED5E43"/>
			<stop  offset="0.73" style="stop-color:#F07A4A"/>
			<stop  offset="0.85" style="stop-color:#F1844C"/>
			<stop  offset="0.99" style="stop-color:#F1844C"/>
		</linearGradient>
		<path fill="url(#SVGID_4_)" d="M25.9,0.9h-8.4c0,0-3.2,3.6-3.2,6.5l-0.1,11c0,0.6,0,1.3,0.2,1.9c0,0-0.4-2.4,3.7-8L25.9,0.9z"/>
	</g>
</g>
</svg>
