<svg xmlns="http://www.w3.org/2000/svg" viewBox="0 0 99.04 99.04"><defs><style>.cls-1,.cls-2{fill:#fff;}.cls-2{fill-rule:evenodd;}</style></defs><g id="Ebene_2" data-name="Ebene 2"><g id="_16" data-name="16"><path class="cls-1" d="M49.52,0a49.52,49.52,0,1,1-35,14.5A49.34,49.34,0,0,1,49.52,0ZM81.79,17.25A45.64,45.64,0,1,0,17.25,81.79,45.64,45.64,0,1,0,81.79,17.25Z"/><path class="cls-2" d="M27.17,50V71.86H37.59V42.06H27.17Zm44.45,1.24c-.69-5.65-3.26-9.16-10.89-9.16-4.47,0-7.48,1.65-8.74,4h-.14v-4H43.54v29.8h8.69V57.09c0-3.9.77-7.65,5.54-7.65s5.15,4.44,5.15,7.92v14.5h8.94V55.5a35.46,35.46,0,0,0-.24-4.28Zm-39.24-24a5.21,5.21,0,1,0,5.21,5.21,5.21,5.21,0,0,0-5.21-5.21Z"/></g></g></svg>