<svg xmlns="http://www.w3.org/2000/svg" viewBox="0 0 112.56 112.8"><defs><style>.cls-1,.cls-2{fill:#545454;}.cls-2{fill-rule:evenodd;}</style></defs><g id="Ebene_2" data-name="Ebene 2"><g id="Ebene_1-2" data-name="Ebene 1"><path class="cls-1" d="M112.55,57C112.21,88.46,87,113.08,55.37,112.8,24.42,112.53-.34,87,0,55.66A56.28,56.28,0,1,1,112.55,57Zm-6.06-.39C106.54,28.86,84,6.1,56.43,6.09A50.33,50.33,0,1,0,106.49,56.6Z"/><path class="cls-2" d="M34.91,53.57V75.45H45.33V45.64H34.91ZM79.36,54.8c-.69-5.65-3.26-9.16-10.89-9.16-4.47,0-7.48,1.65-8.74,4h-.14v-4H51.28V75.45H60V60.67c0-3.9.77-7.65,5.54-7.65s5.16,4.44,5.16,7.92V75.45h8.94V59.08a35.49,35.49,0,0,0-.25-4.28Zm-39.24-24A5.21,5.21,0,1,0,45.33,36a5.21,5.21,0,0,0-5.21-5.21Z"/></g></g></svg>