<svg xmlns="http://www.w3.org/2000/svg" viewBox="0 0 112.56 112.8"><defs><style>.cls-1{fill:#fff;}</style></defs><g id="Ebene_2" data-name="Ebene 2"><g id="Ebene_1-2" data-name="Ebene 1"><path class="cls-1" d="M112.55,57C112.21,88.46,87,113.08,55.37,112.8,24.42,112.53-.34,87,0,55.66A56.28,56.28,0,1,1,112.55,57Zm-6.06-.39C106.54,28.86,84,6.1,56.43,6.09A50.33,50.33,0,1,0,106.49,56.6Z"/><path class="cls-1" d="M56.31,86.34C48.05,77.61,40.77,69,36.2,58.46,32,48.78,34,39.34,41.28,32.66a22.47,22.47,0,0,1,27.34-2.1,21.83,21.83,0,0,1,8.65,25.56c-3,8.45-8.3,15.49-13.9,22.32C61.25,81,58.91,83.45,56.31,86.34ZM65.4,49a9.12,9.12,0,1,0-18.24.35A9.12,9.12,0,1,0,65.4,49Z"/></g></g></svg>