<svg xmlns="http://www.w3.org/2000/svg" viewBox="0 0 99.04 99.06"><defs><style>.cls-1{fill:#fff;}</style></defs><g id="Ebene_2" data-name="Ebene 2"><g id="_16" data-name="16"><path class="cls-1" d="M49.52,0a49.52,49.52,0,1,1-35,14.5A49.47,49.47,0,0,1,49.52,0ZM81.79,17.25a45.64,45.64,0,1,0,13.38,32.3,45.45,45.45,0,0,0-13.38-32.3Z"/><path class="cls-1" d="M49.17,79.89C40.91,71.16,33.63,62.54,29.06,52c-4.19-9.68-2.22-19.12,5.08-25.79A22.47,22.47,0,0,1,61.48,24.1a21.83,21.83,0,0,1,8.65,25.56c-3,8.46-8.3,15.5-13.9,22.33C54.11,74.58,51.77,77,49.17,79.89Zm9.09-37.38A9.12,9.12,0,1,0,40,42.86a9.12,9.12,0,1,0,18.24-.35Z"/></g></g></svg>