<svg xmlns="http://www.w3.org/2000/svg" viewBox="0 0 112.56 112.8"><defs><style>.cls-1{fill:#545454;}</style></defs><g id="Ebene_2" data-name="Ebene 2"><g id="Ebene_1-2" data-name="Ebene 1"><path class="cls-1" d="M112.55,57C112.21,88.46,87,113.08,55.37,112.8,24.42,112.53-.34,87,0,55.66A56.28,56.28,0,1,1,112.55,57Zm-6.06-.39C106.54,28.86,84,6.1,56.43,6.09A50.33,50.33,0,1,0,106.49,56.6Z"/><path class="cls-1" d="M66,74.74c.61,3.7.51,4.23-2,4.82-7.32,1.75-14.67,2-21.83-.74-6.75-2.62-9.76-8.08-10.43-14.94a38.52,38.52,0,0,1,2.92-19.25c3.76-8.71,10.46-13.8,19.77-14.79a43.64,43.64,0,0,1,13.67.83c6.39,1.39,10.46,5.72,11.66,12.3a28.32,28.32,0,0,1-2,17.19A14.69,14.69,0,0,1,75,64.28c-4.41,4.47-10.88,4.07-15.08-1.06A13.36,13.36,0,0,1,57,65.28a22.59,22.59,0,0,1-6.66,2c-3.87.24-6.35-2-6.87-5.88a22.42,22.42,0,0,1,2.69-14.57c3.68-6.36,9.62-7.23,16.35-2.44.91-2,2-3.89,5-2-.61,3.35-1.26,6.87-1.91,10.38a39,39,0,0,0-1,6.17c0,1.21.61,3.08,1.49,3.51a5.31,5.31,0,0,0,4.23-.25,7.32,7.32,0,0,0,2.84-3.46A25.47,25.47,0,0,0,74.8,44.38c-.87-4.88-3.78-8-8.38-9.56-12.54-4.32-24.77,2-28.31,14.78a33.49,33.49,0,0,0-1,15.32C38.31,71,42.07,74.39,48,75.74A32.92,32.92,0,0,0,63.7,75.2C64.35,75,65,74.93,66,74.74ZM61,50.85a6.17,6.17,0,0,0-3.74-5,4.81,4.81,0,0,0-5.55,1.77c-2.45,3-3.25,6.68-3.3,10.5,0,1.85.27,3.69,2.15,4.62s3.46,0,5.09-.83C60.13,59.49,60.44,55.12,61,50.85Z"/></g></g></svg>