<svg xmlns="http://www.w3.org/2000/svg" viewBox="0 0 112.56 112.8"><defs><style>.cls-1{fill:#545454;}</style></defs><g id="Ebene_2" data-name="Ebene 2"><g id="Ebene_1-2" data-name="Ebene 1"><path class="cls-1" d="M112.55,57C112.21,88.46,87,113.08,55.37,112.8,24.42,112.53-.34,87,0,55.66A56.28,56.28,0,1,1,112.55,57Zm-6.06-.39C106.54,28.86,84,6.1,56.43,6.09A50.33,50.33,0,1,0,106.49,56.6Z"/><path class="cls-1" d="M55.67,74.28c-7.91,0-15.83,0-23.74,0-4.49,0-4.76-.25-4.77-4.53q0-13.09,0-26.19c0-4.23.32-4.58,4.3-4.59q24.34,0,48.71,0c3.89,0,4.35.43,4.36,4.12q.06,13.5,0,27c0,3.78-.42,4.16-4.3,4.18C72,74.31,63.86,74.28,55.67,74.28ZM31.39,70.47c.67.62,1,1,1,1C38,67.15,43.48,62.85,49.25,58.34l6.63,5.32,6.84-5.55c1.15.94,2.21,1.78,3.23,2.65q5.92,5,11.82,10.11c.78.66,1.59,1.24,2.41-.54L64.53,56.77c4.94-5.31,11-9,15.69-14.27-1.9-1.58-2.62-.07-3.42.6-6.24,5.29-12.43,10.65-18.66,16-.78.67-1.68,1.21-2.55,1.82-1.16-1-2.1-1.77-3-2.56L34.22,42.61c-.79-.68-1.63-1.75-2.72.23L47.38,56.66Z"/></g></g></svg>