<svg xmlns="http://www.w3.org/2000/svg" viewBox="0 0 99.04 99.06"><defs><style>.cls-1{fill:#222626;}</style></defs><g id="Ebene_2" data-name="Ebene 2"><g id="_16" data-name="16"><path class="cls-1" d="M49.52,0a49.52,49.52,0,1,1-35,14.5A49.47,49.47,0,0,1,49.52,0ZM81.79,17.25a45.64,45.64,0,1,0,13.38,32.3,45.45,45.45,0,0,0-13.38-32.3Z"/><path class="cls-1" d="M60.06,68.12c.62,3.7.51,4.23-1.94,4.82-7.33,1.75-14.68,2-21.84-.74-6.75-2.62-9.75-8.07-10.43-14.94A38.52,38.52,0,0,1,28.78,38c3.75-8.7,10.46-13.79,19.76-14.79a43.7,43.7,0,0,1,13.68.83c6.38,1.39,10.46,5.73,11.65,12.3a28.37,28.37,0,0,1-2,17.19A14.58,14.58,0,0,1,69,57.66c-4.41,4.47-10.88,4.08-15.07-1a14.66,14.66,0,0,1-2.87,2.06,22.93,22.93,0,0,1-6.67,2c-3.87.24-6.34-2-6.87-5.88a22.47,22.47,0,0,1,2.69-14.56c3.68-6.36,9.62-7.24,16.36-2.44.91-2,2-3.89,5-2-.62,3.35-1.26,6.87-1.91,10.38a37.84,37.84,0,0,0-1.05,6.18c0,1.21.6,3.07,1.49,3.5a5.28,5.28,0,0,0,4.22-.25,7.26,7.26,0,0,0,2.84-3.46,25.38,25.38,0,0,0,1.65-14.36c-.86-4.87-3.77-8-8.37-9.55-12.54-4.32-24.77,2-28.31,14.77a33.23,33.23,0,0,0-1,15.32c1.15,6.08,4.91,9.48,10.78,10.82a32.92,32.92,0,0,0,15.75-.54C58.41,68.42,59.08,68.32,60.06,68.12Zm-5-23.89a6.21,6.21,0,0,0-3.75-5A4.82,4.82,0,0,0,45.76,41c-2.44,3.05-3.25,6.69-3.3,10.5,0,1.86.28,3.69,2.15,4.63s3.47,0,5.09-.84C54.18,52.88,54.5,48.5,55.06,44.23Z"/></g></g></svg>