<svg xmlns="http://www.w3.org/2000/svg" xmlns:xlink="http://www.w3.org/1999/xlink" viewBox="0 0 393 121"><defs><style>.cls-1{fill:url(#Unbenannter_Verlauf_16);}.cls-2,.cls-4{fill:none;stroke:#fff;stroke-width:3px;}.cls-2{stroke-miterlimit:10;}.cls-3{fill:#fff;}.cls-4{stroke-linecap:round;stroke-linejoin:round;}</style><linearGradient id="Unbenannter_Verlauf_16" x1="64.71" y1="36.66" x2="488.74" y2="113.37" gradientUnits="userSpaceOnUse"><stop offset="1" stop-color="#df2029"/><stop offset="1" stop-color="#ef8a19"/></linearGradient></defs><g id="Ebene_2" data-name="Ebene 2"><g id="Ebene_1-2" data-name="Ebene 1"><rect class="cls-1" width="393" height="121" rx="60.5"/><circle class="cls-2" cx="324" cy="60" r="41"/><path class="cls-3" d="M98.37,44.61,84.21,76.54H80.67L66.25,44.61V83.1H62.71V36.41h3.54l16.26,36,15.86-36h3.54V83.1H98.37Z"/><path class="cls-3" d="M120.28,36.41H148.6v3.15H123.82V58h21.11v3.15H123.82V80H148.6V83.1H120.28Z"/><path class="cls-3" d="M191.29,61.13H167v22h-3.54V36.41H167V58h24.32V36.41h3.54V83.1h-3.54Z"/><path class="cls-3" d="M229.59,61.59H216.74V83.1H213.2V36.41H231c7.61,0,13.38,4.4,13.38,12.53,0,7-4.2,11.47-10.75,12.59L244.87,83.1h-4.14Zm.92-22H216.74V58.44h13.77c6,0,10.29-2.95,10.29-9.44S236.54,39.56,230.51,39.56Z"/><polyline class="cls-4" points="315.5 44.5 335.5 60.5 315.5 75.5"/></g></g></svg>