<svg xmlns="http://www.w3.org/2000/svg" viewBox="0 0 112.56 112.79"><defs><style>.cls-1{fill:#333;}</style></defs><g id="Ebene_2" data-name="Ebene 2"><g id="Ebene_1-2" data-name="Ebene 1"><path class="cls-1" d="M112.56,56.93A56.28,56.28,0,1,1,0,55.57C.33,24.27,25.81-.37,57.46,0,88.12.36,112.83,25.89,112.56,56.93Zm-6.09-.45a50.2,50.2,0,1,0-50.3,50.25A50.27,50.27,0,0,0,106.47,56.48Z"/><g id="Yy1csP.tif"><path class="cls-1" d="M59.05,91.38H53.83a2.34,2.34,0,0,0-.41-.12c-9.84-.91-17.78-5.45-24.22-12.75C24.59,73.29,22.35,67,21.73,60.15c-.09-1-.19-2-.28-2.94V55.13l.15-1c.33-2.23.51-4.5,1-6.69a31.17,31.17,0,0,1,9.28-15.58A36.22,36.22,0,0,1,52,22.17a33.64,33.64,0,0,1,18.69,2.7A33,33,0,0,1,87.75,41.51c3.19,6.83,3.75,14,2.64,21.42A33.46,33.46,0,0,1,63,90.78C61.69,91,60.36,91.18,59.05,91.38ZM32.72,35.44C27.54,41,25.51,47.78,24.79,55.12a2,2,0,0,0,.37.07c3.88,0,7.75,0,11.63,0,.55,0,.56-.32.6-.71.23-1.85.39-3.71.73-5.53a39.51,39.51,0,0,1,2.76-9.19C38.13,38.37,35.19,37.44,32.72,35.44Zm4.59,22.75H24.94c.58,7.4,2.88,14,7.72,19.63l8.05-4.19C39,68.56,37.5,63.53,37.31,58.19ZM71.94,39.86a41.86,41.86,0,0,1,3.45,15.3H87.76c-.32-7.57-2.65-14.23-7.85-19.66Zm3.67,18.32c-.18,5.36-1.84,10.34-3.69,15.27l8.21,4.36a31.85,31.85,0,0,0,7.62-19.63Zm-17.71,0V69.84c4,0,7.63,1.17,11.26,2.73a40.61,40.61,0,0,0,3.17-14.4Zm-3.16,11.7V58.18H40.23a50.23,50.23,0,0,0,3.4,14.47A33.81,33.81,0,0,1,54.74,69.87ZM69.2,40.82a34.09,34.09,0,0,1-11.3,2.79V55.14H72.39A43.38,43.38,0,0,0,69.2,40.82ZM54.65,55.16c.07-.08.1-.1.1-.12,0-3.67,0-7.35,0-11,0-.15-.32-.43-.5-.44A30.71,30.71,0,0,1,46,41.75l-2.55-.89a37.61,37.61,0,0,0-3.17,14.3Zm.1,33.08V72.65A60.26,60.26,0,0,0,44.6,75c0,.16,0,.18,0,.2A58.89,58.89,0,0,0,51.4,87.75a.82.82,0,0,0,.53.32C52.84,88.15,53.75,88.19,54.75,88.24ZM68.13,75.12a35.56,35.56,0,0,0-10.24-2.27V88.24c.88,0,1.72-.06,2.55-.16a1.39,1.39,0,0,0,.85-.45C64.11,83.79,66.08,79.48,68.13,75.12ZM57.89,40.4c3.54-.33,7-.55,10.24-2.3A48.75,48.75,0,0,0,61,25.78a.86.86,0,0,0-.45-.34c-.88-.08-1.76-.11-2.64-.16ZM54.75,25.27c-.85.05-1.61.13-2.37.13a1.36,1.36,0,0,0-1.25.76c-1.18,1.9-2.46,3.74-3.54,5.69s-2.1,4.19-3.14,6.29c2,1,8.82,2.4,10.3,2.15ZM47.1,26.53a26.19,26.19,0,0,0-12.34,6.86L41.49,37ZM77.83,80l-7-3.74a38.24,38.24,0,0,1-5.6,10.55A23.68,23.68,0,0,0,77.83,80ZM71,37.32l6.84-4a36.34,36.34,0,0,0-13-7.08A48.24,48.24,0,0,1,71,37.32ZM34.8,80a39.73,39.73,0,0,0,12.52,6.91c-1.9-3.53-3.78-7-5.73-10.65Z"/></g></g></g></svg>