<svg xmlns="http://www.w3.org/2000/svg" viewBox="0 0 99.04 99.04"><defs><style>.cls-1{fill:#262626;}</style></defs><g id="Ebene_2" data-name="Ebene 2"><g id="_16" data-name="16"><g id="Yy1csP.tif"><path class="cls-1" d="M51.86,78.19H47.5a2.19,2.19,0,0,0-.34-.1C39,77.34,32.32,73.54,27,67.46a26,26,0,0,1-6.24-15.33c-.07-.82-.15-1.64-.23-2.45V47.94l.12-.84c.29-1.87.43-3.76.87-5.58a26.09,26.09,0,0,1,7.75-13A30.18,30.18,0,0,1,46,20.44a28.11,28.11,0,0,1,15.61,2.24A27.59,27.59,0,0,1,75.81,36.57,30.57,30.57,0,0,1,78,54.45,27.93,27.93,0,0,1,55.15,77.7C54.06,77.9,53,78,51.86,78.19Zm-22-46.68c-4.32,4.65-6,10.3-6.61,16.42a2,2,0,0,0,.31.06h9.7c.47,0,.47-.26.51-.59.18-1.54.32-3.09.6-4.61a33.18,33.18,0,0,1,2.3-7.67C34.4,34,31.94,33.17,29.88,31.51Zm3.84,19H23.39a27.53,27.53,0,0,0,6.45,16.37l6.71-3.49C35.14,59.15,33.87,55,33.72,50.5Zm28.9-15.31A35,35,0,0,1,65.49,48H75.82c-.27-6.31-2.21-11.87-6.55-16.4Zm3.06,15.29c-.15,4.48-1.53,8.63-3.08,12.75l6.85,3.64a26.53,26.53,0,0,0,6.36-16.39Zm-14.78,0v9.74a22.66,22.66,0,0,1,9.4,2.28,34.18,34.18,0,0,0,2.64-12Zm-2.64,9.76V50.49H36.16A41.65,41.65,0,0,0,39,62.56,28.47,28.47,0,0,1,48.26,60.24ZM60.34,36a28.37,28.37,0,0,1-9.44,2.32V48H63A36,36,0,0,0,60.34,36ZM48.19,48c.06-.06.08-.08.08-.09,0-3.07,0-6.14,0-9.21,0-.12-.27-.35-.42-.36A25.47,25.47,0,0,1,41,36.77L38.86,36A31.42,31.42,0,0,0,36.21,48Zm.08,27.61v-13a50.75,50.75,0,0,0-8.47,2c0,.13,0,.15,0,.17a49.7,49.7,0,0,0,5.69,10.45.7.7,0,0,0,.45.26C46.68,75.5,47.44,75.53,48.27,75.57ZM59.44,64.62a29.33,29.33,0,0,0-8.54-1.89V75.57c.73,0,1.43,0,2.12-.13a1.13,1.13,0,0,0,.71-.38A61.23,61.23,0,0,0,59.44,64.62Zm-8.55-29c3-.28,5.87-.47,8.55-1.93a40.58,40.58,0,0,0-6-10.27.65.65,0,0,0-.38-.28c-.73-.07-1.46-.1-2.2-.14ZM48.27,23c-.71,0-1.34.11-2,.11a1.13,1.13,0,0,0-1,.64c-1,1.58-2,3.11-3,4.74s-1.75,3.5-2.62,5.25c1.71.84,7.37,2,8.6,1.79Zm-6.39,1.05a21.86,21.86,0,0,0-10.29,5.72l5.62,3ZM67.53,68.68l-5.88-3.12A31.73,31.73,0,0,1,57,74.36,19.69,19.69,0,0,0,67.53,68.68ZM61.84,33.07l5.71-3.31a30.25,30.25,0,0,0-10.87-5.91A39.8,39.8,0,0,1,61.84,33.07ZM31.62,68.71a32.94,32.94,0,0,0,10.45,5.77l-4.78-8.89Z"/></g><path class="cls-1" d="M49.52,0a49.52,49.52,0,1,1-35,14.5A49.34,49.34,0,0,1,49.52,0ZM81.79,17.25A45.64,45.64,0,1,0,17.25,81.79,45.64,45.64,0,1,0,81.79,17.25Z"/></g></g></svg>