<svg xmlns="http://www.w3.org/2000/svg" viewBox="0 0 112.56 112.8"><defs><style>.cls-1{fill:#fff;}</style></defs><g id="Ebene_2" data-name="Ebene 2"><g id="Ebene_1-2" data-name="Ebene 1"><path class="cls-1" d="M112.55,57C112.21,88.46,87,113.08,55.37,112.8,24.42,112.53-.34,87,0,55.66A56.28,56.28,0,1,1,112.55,57Zm-6.06-.39C106.54,28.86,84,6.1,56.43,6.09A50.33,50.33,0,1,0,106.49,56.6Z"/><path class="cls-1" d="M70.36,85.57c-4.86.65-9.07-1-12.83-3.85a36.24,36.24,0,0,1-5.69-5.16A69.54,69.54,0,0,1,35.94,44.7c-.84-4.13-1.09-8.4.46-12.39.84-2.16,2.55-4,3.87-6,2.36,4.52,4.79,9,7,13.6a20.29,20.29,0,0,1,1,4.11c-1.19,1.65-.64,3.33-.06,5A62,62,0,0,0,57.75,66.3c.7.92,1.76,2.14,2.72,2.19,2.28.14,2.77,1.84,3.71,3.24,1.69,3.37,3.43,6.71,5,10.11A25.56,25.56,0,0,1,70.36,85.57Z"/><path class="cls-1" d="M42.86,24.61c5.27-2.38,5.27-2.38,8,2.93,1.36,2.62,2.75,5.22,4.08,7.85,1.7,3.36,1.54,3.83-1.75,5.61-.94.51-1.93.94-2.89,1.4q-3.72-7.09-7.43-14.21C42.3,27,41.45,25.83,42.86,24.61Z"/><path class="cls-1" d="M64.92,70.87c-.32-.88-.63-1.76-1-2.66a4.19,4.19,0,0,1,.82-.89c5.1-3,5.32-2.93,8.1,2.34,1.44,2.73,2.92,5.45,4.28,8.22s1.15,3.41-1.46,4.82A26.67,26.67,0,0,1,72,84.08Z"/></g></g></svg>