<svg xmlns="http://www.w3.org/2000/svg" viewBox="0 0 99.04 99.06"><defs><style>.cls-1{fill:#fff;}</style></defs><g id="Ebene_2" data-name="Ebene 2"><g id="_16" data-name="16"><path class="cls-1" d="M49.52,0a49.52,49.52,0,1,1-35,14.5A49.47,49.47,0,0,1,49.52,0ZM81.79,17.25a45.64,45.64,0,1,0,13.38,32.3,45.45,45.45,0,0,0-13.38-32.3Z"/><path class="cls-1" d="M63.25,80.7c-4.86.65-9.07-1-12.84-3.85a37.07,37.07,0,0,1-5.68-5.15,69.62,69.62,0,0,1-15.9-31.87c-.84-4.13-1.09-8.4.46-12.39.84-2.16,2.55-4,3.86-6,2.37,4.53,4.8,9,7.05,13.61a20.2,20.2,0,0,1,1,4.1c-1.19,1.65-.64,3.33-.06,5a62.14,62.14,0,0,0,9.45,17.26c.7.92,1.76,2.13,2.72,2.19,2.28.13,2.77,1.84,3.7,3.24,1.7,3.36,3.44,6.7,5,10.11A25.84,25.84,0,0,1,63.25,80.7Z"/><path class="cls-1" d="M35.75,19.75c5.27-2.39,5.27-2.39,8,2.93,1.37,2.61,2.76,5.21,4.09,7.84,1.7,3.37,1.54,3.83-1.76,5.62-.94.51-1.92.93-2.88,1.4L35.81,23.32C35.19,22.14,34.33,21,35.75,19.75Z"/><path class="cls-1" d="M57.8,66c-.31-.88-.62-1.75-.95-2.66a4.79,4.79,0,0,1,.83-.89c5.1-3,5.32-2.93,8.09,2.34,1.44,2.74,2.93,5.45,4.29,8.23s1.14,3.4-1.46,4.81a27.16,27.16,0,0,1-3.69,1.38Z"/></g></g></svg>