<svg xmlns="http://www.w3.org/2000/svg" viewBox="0 0 99.04 99.06"><defs><style>.cls-1,.cls-2{fill:#fff;}.cls-2{fill-rule:evenodd;}</style></defs><g id="Ebene_2" data-name="Ebene 2"><g id="_16" data-name="16"><path class="cls-1" d="M49.52,0a49.52,49.52,0,1,1-35,14.5A49.47,49.47,0,0,1,49.52,0ZM81.79,17.25a45.64,45.64,0,1,0,13.38,32.3,45.45,45.45,0,0,0-13.38-32.3Z"/><path class="cls-2" d="M74.8,34.11a22.61,22.61,0,0,1-6,1.62,10.28,10.28,0,0,0,4.58-5.68,21.18,21.18,0,0,1-6.61,2.5,10.41,10.41,0,0,0-18,7,10.92,10.92,0,0,0,.3,2.33A29.45,29.45,0,0,1,27.77,31.17a10.4,10.4,0,0,0-1.42,5.13A10.18,10.18,0,0,0,31,44.8a10.07,10.07,0,0,1-4.69-1.26v.14A9.56,9.56,0,0,0,27,47.35a10.35,10.35,0,0,0,7.62,6.31,10.42,10.42,0,0,1-2.74.38,9,9,0,0,1-1.95-.22A10.47,10.47,0,0,0,39.59,61a21,21,0,0,1-12.86,4.36c-.85,0-1.64-.06-2.49-.14a29.91,29.91,0,0,0,15.9,4.58c16.21,0,26.21-11.21,28.82-22.87a28.42,28.42,0,0,0,.68-6.16V39.4a21.43,21.43,0,0,0,5.16-5.29Z"/></g></g></svg>