<svg xmlns="http://www.w3.org/2000/svg" viewBox="0 0 112.56 112.8"><defs><style>.cls-1,.cls-2{fill:#545454;}.cls-2{fill-rule:evenodd;}</style></defs><g id="Ebene_2" data-name="Ebene 2"><g id="Ebene_1-2" data-name="Ebene 1"><path class="cls-1" d="M112.55,57C112.21,88.46,87,113.08,55.37,112.8,24.42,112.53-.34,87,0,55.66A56.28,56.28,0,1,1,112.55,57Zm-6.06-.39C106.54,28.86,84,6.1,56.43,6.09A50.33,50.33,0,1,0,106.49,56.6Z"/><path class="cls-2" d="M82.13,41.19a21.87,21.87,0,0,1-5.95,1.62,10.2,10.2,0,0,0,4.58-5.68,21.18,21.18,0,0,1-6.61,2.5,10.41,10.41,0,0,0-18,7,11,11,0,0,0,.3,2.34A29.46,29.46,0,0,1,35.11,38.26a10.07,10.07,0,0,0,3.18,13.63,10.07,10.07,0,0,1-4.69-1.27v.14a9.8,9.8,0,0,0,.71,3.68,10.33,10.33,0,0,0,7.63,6.3,10.15,10.15,0,0,1-2.75.39,9.69,9.69,0,0,1-1.94-.22A10.46,10.46,0,0,0,46.93,68a21,21,0,0,1-12.86,4.35c-.85,0-1.65,0-2.5-.13a29.94,29.94,0,0,0,15.9,4.58A28.86,28.86,0,0,0,76.29,54,27.9,27.9,0,0,0,77,47.8V46.48a21.25,21.25,0,0,0,5.16-5.29Z"/></g></g></svg>